<?xml version="1.0" standalone="no"?>
<!DOCTYPE svg PUBLIC "-//W3C//DTD SVG 20010904//EN"
 "http://www.w3.org/TR/2001/REC-SVG-20010904/DTD/svg10.dtd">
<svg version="1.0" xmlns="http://www.w3.org/2000/svg"
 width="776.000000pt" height="776.000000pt" viewBox="0 0 776.000000 776.000000"
 preserveAspectRatio="xMidYMid meet">
<metadata>
Created by potrace 1.11, written by Peter Selinger 2001-2013
</metadata>
<g transform="translate(0.000000,776.000000) scale(0.100000,-0.100000)"
fill="#000000" stroke="none">
<path d="M1953 6558 c5 -16 3 -17 -9 -7 -12 10 -13 8 -6 -12 5 -13 7 -39 5
-56 -2 -21 2 -33 10 -33 8 0 7 -3 -3 -10 -8 -5 -11 -12 -7 -16 4 -4 2 -13 -3
-20 -8 -8 -6 -17 5 -28 9 -9 12 -16 6 -16 -5 0 -10 -8 -10 -17 -2 -51 -3 -54
-21 -38 -16 14 -18 14 -24 -1 -5 -13 -9 -14 -20 -5 -8 7 -25 10 -38 7 -14 -2
-31 0 -38 4 -9 6 -19 2 -27 -8 -11 -14 -12 -14 -8 -1 5 12 -1 14 -30 11 -19
-2 -33 -8 -30 -12 3 -5 1 -11 -5 -15 -6 -4 -7 -11 -4 -17 5 -9 6 -88 0 -211 0
-10 -7 -16 -16 -15 -8 1 -21 -1 -29 -6 -9 -6 -12 -5 -7 2 4 7 -3 10 -21 8 -16
-1 -36 1 -46 6 -9 5 -16 5 -15 1 2 -4 -1 -8 -7 -8 -5 0 -9 4 -7 9 2 5 -4 4
-12 -4 -9 -7 -16 -9 -16 -5 0 4 -8 1 -17 -6 -11 -10 -14 -10 -9 -1 4 7 2 12
-8 12 -8 0 -18 -5 -22 -12 -5 -7 -3 -8 7 -3 8 5 6 0 -4 -12 -18 -21 -14 -53 7
-53 6 0 4 -4 -4 -10 -8 -5 -11 -12 -7 -16 4 -4 2 -13 -3 -20 -8 -8 -6 -17 5
-28 9 -9 12 -16 7 -16 -6 0 -9 -21 -8 -47 2 -27 -2 -54 -8 -62 -8 -10 -8 -13
0 -8 13 7 13 -71 0 -92 -5 -8 -5 -12 0 -9 5 4 9 -28 9 -72 1 -43 -3 -76 -7
-74 -4 3 -5 -2 -2 -10 3 -9 11 -16 18 -16 6 0 4 -4 -4 -10 -8 -5 -11 -12 -7
-16 4 -4 2 -13 -3 -20 -8 -8 -6 -17 5 -28 9 -9 12 -16 6 -16 -6 0 -8 -24 -6
-60 2 -33 -1 -63 -6 -66 -5 -3 -7 -10 -3 -15 11 -18 12 -149 1 -142 -5 3 -7 1
-4 -4 12 -18 17 -84 7 -78 -6 3 -7 -1 -4 -9 3 -9 11 -16 18 -16 6 0 4 -4 -4
-10 -8 -5 -11 -12 -7 -16 4 -4 2 -13 -3 -20 -8 -8 -6 -17 5 -28 9 -9 12 -16 7
-16 -6 0 -9 -21 -8 -47 2 -27 -2 -54 -8 -62 -8 -10 -8 -13 0 -8 13 7 13 -71 0
-92 -5 -8 -5 -12 0 -9 5 4 9 -28 9 -72 1 -43 -3 -76 -7 -74 -4 3 -5 -2 -2 -10
3 -9 11 -16 18 -16 6 0 4 -4 -4 -10 -8 -5 -11 -12 -7 -16 4 -4 2 -13 -3 -20
-8 -8 -6 -17 5 -28 9 -9 12 -16 6 -16 -6 0 -8 -24 -6 -60 2 -33 -1 -63 -6 -66
-5 -3 -7 -10 -3 -16 3 -5 7 -37 8 -70 2 -52 -1 -61 -19 -68 -11 -5 -14 -9 -6
-9 8 -1 12 -4 8 -7 -3 -3 -12 -2 -19 2 -7 5 -20 9 -28 9 -8 0 -21 4 -29 9 -10
6 -12 5 -7 -2 5 -8 0 -11 -16 -8 -13 2 -29 -2 -37 -8 -11 -8 -13 -8 -8 0 9 16
-18 25 -31 12 -8 -8 -16 -7 -28 3 -15 12 -17 12 -9 0 5 -9 4 -12 -2 -8 -6 4
-10 18 -10 32 0 14 4 22 10 18 6 -4 7 -1 1 8 -11 18 -14 190 -3 183 5 -3 6 1
4 8 -3 8 -22 15 -42 16 -20 2 -40 5 -45 8 -4 3 -8 0 -8 -6 0 -7 -6 -8 -19 0
-12 6 -22 6 -25 1 -3 -5 -21 -5 -41 -1 -20 4 -35 4 -35 -1 0 -13 -23 -6 -37
11 -7 9 -8 21 -3 31 6 10 5 20 -2 27 -7 7 -8 12 -3 12 6 0 10 38 10 85 0 47
-3 85 -7 85 -4 0 -5 8 -1 18 3 9 3 14 -2 10 -4 -4 -16 -3 -26 3 -11 5 -19 6
-19 1 0 -5 -38 -8 -85 -7 -57 1 -85 -2 -85 -9 0 -7 -3 -6 -8 2 -10 14 -64 13
-74 -3 -5 -6 -8 -6 -8 2 0 16 -70 14 -70 -1 0 -7 -3 -7 -8 1 -9 15 -72 14 -72
-1 0 -7 -3 -7 -8 1 -4 7 -21 11 -37 9 -17 -1 -38 1 -47 6 -11 5 -18 5 -18 -1
0 -10 -92 -7 -109 4 -6 3 -11 2 -11 -3 0 -5 -38 -8 -85 -7 -57 1 -85 -2 -85
-9 0 -8 -3 -8 -8 1 -4 6 -24 11 -44 11 -23 0 -35 -4 -32 -10 4 -7 0 -6 -13 0
-17 10 -19 6 -19 -74 0 -51 4 -84 11 -84 6 0 7 -3 0 -8 -14 -10 -14 -105 -1
-114 7 -5 7 -8 1 -8 -14 0 -14 -110 -1 -110 7 0 8 -3 1 -8 -14 -10 -14 -105
-1 -114 7 -5 7 -8 1 -8 -14 0 -14 -110 -1 -110 7 0 8 -3 1 -8 -14 -10 -14
-105 -1 -114 8 -5 8 -8 1 -8 -6 0 -11 -11 -11 -25 0 -15 4 -21 11 -16 9 7 23
7 43 1 19 -6 49 -4 66 3 12 6 16 6 12 -2 -5 -8 0 -8 18 -1 14 5 28 6 30 1 3
-5 16 -6 30 -4 13 3 27 -1 31 -8 5 -8 4 -10 -3 -5 -8 5 -10 2 -6 -8 3 -9 11
-13 18 -10 6 3 2 -2 -8 -10 -11 -9 -15 -16 -10 -16 12 0 12 -70 -1 -89 -5 -10
-4 -12 3 -7 8 5 11 0 8 -16 -2 -13 1 -31 6 -40 6 -13 5 -16 -6 -12 -13 5 -13
2 -3 -20 7 -14 17 -24 23 -22 6 3 17 -1 24 -7 9 -9 11 -9 6 0 -7 13 91 13 113
-1 9 -6 12 -5 7 2 -4 7 5 10 29 9 20 -1 35 -7 35 -14 0 -7 6 -13 13 -14 6 0 3
-4 -8 -9 -16 -7 -17 -9 -3 -9 14 -1 15 -6 8 -31 -6 -21 -5 -30 3 -30 7 0 6 -4
-3 -10 -9 -6 -10 -10 -3 -10 8 0 9 -9 2 -32 -11 -41 -11 -41 1 -33 6 4 7 -2 2
-17 -5 -13 -7 -29 -6 -35 1 -7 2 -18 3 -24 0 -5 5 -8 10 -5 5 4 11 0 14 -6 3
-10 9 -10 27 0 12 8 19 9 16 4 -3 -6 1 -13 10 -16 8 -3 12 -2 9 4 -3 6 3 10
15 10 14 0 19 -4 14 -12 -4 -7 1 -6 12 3 19 17 43 15 56 -5 5 -8 8 -7 8 2 0 6
7 12 15 12 8 0 15 -5 15 -11 0 -5 4 -7 10 -4 12 7 11 8 14 -67 1 -31 -1 -55
-4 -53 -5 3 -4 -71 2 -132 1 -8 7 -9 20 -2 10 5 18 6 18 2 0 -4 5 -2 11 4 9 9
18 7 37 -5 15 -9 23 -12 19 -6 -4 7 0 15 9 18 10 4 13 2 8 -6 -5 -8 -2 -9 9
-5 9 3 19 2 23 -4 4 -7 10 -7 18 0 7 6 25 8 40 5 20 -3 26 -1 20 8 -5 10 -4
10 6 1 7 -6 19 -9 28 -6 11 5 13 3 7 -7 -6 -10 -4 -11 6 -4 8 5 21 9 29 9 8 0
21 4 29 9 10 6 12 5 7 -2 -5 -8 3 -11 26 -8 18 2 39 -1 47 -7 11 -9 13 -9 8 0
-4 6 -3 14 2 17 5 3 12 -1 15 -9 4 -12 10 -14 25 -5 18 9 20 7 19 -29 0 -22 3
-44 6 -50 4 -6 2 -11 -5 -11 -9 0 -9 -3 0 -14 8 -10 9 -16 1 -21 -7 -4 -7 -12
0 -26 8 -14 7 -19 -1 -19 -8 0 -8 -4 -1 -13 7 -8 7 -18 2 -27 -5 -8 -5 -21 0
-31 5 -9 6 -20 2 -24 -4 -5 1 -5 11 -2 9 4 17 3 17 -1 0 -4 14 -7 30 -7 17 0
30 4 30 8 0 4 9 3 19 -3 14 -7 22 -7 26 0 4 6 12 7 18 3 7 -4 31 -7 55 -5 39
2 42 0 32 -17 -5 -11 -6 -22 -2 -25 10 -6 10 -46 -1 -63 -4 -6 -2 -15 4 -19 8
-5 9 -3 4 6 -6 9 -4 11 5 5 10 -6 9 -11 -5 -22 -11 -7 -14 -13 -9 -13 12 0 12
-59 0 -79 -6 -9 -5 -12 1 -8 12 7 11 -72 -1 -92 -6 -8 -5 -12 0 -8 5 3 9 -33
9 -86 -1 -92 -1 -92 -27 -93 -14 -1 -33 -4 -42 -7 -8 -3 -18 -2 -21 3 -3 5
-15 6 -29 0 -12 -4 -29 -4 -36 0 -8 5 -19 5 -26 -1 -8 -6 -14 -6 -18 0 -3 5
-15 7 -27 4 -19 -5 -20 -12 -18 -90 1 -46 -1 -86 -4 -90 -4 -3 -2 -14 4 -24 5
-11 6 -19 1 -19 -12 0 -2 -49 11 -57 20 -12 107 -12 107 0 0 7 5 5 10 -3 5 -8
10 -11 10 -7 0 4 10 3 21 -4 17 -9 20 -8 14 2 -6 9 -3 11 8 6 10 -4 17 -1 17
6 0 7 3 8 8 2 11 -15 72 -17 72 -3 0 9 4 8 10 -2 5 -8 10 -11 10 -7 0 4 10 3
21 -4 17 -9 20 -8 14 2 -6 9 -3 11 8 6 10 -4 17 -1 17 6 0 7 3 8 8 2 11 -15
72 -17 72 -3 0 9 4 8 10 -2 5 -8 10 -11 10 -7 0 4 10 3 21 -4 17 -9 20 -8 14
2 -6 9 -3 11 8 6 10 -4 17 -1 17 6 0 7 3 8 8 2 11 -15 72 -17 72 -3 0 9 4 8
10 -2 5 -8 10 -11 10 -7 0 4 10 3 21 -4 17 -9 20 -8 14 2 -6 9 -3 11 8 6 10
-4 17 -1 17 6 0 8 3 8 9 -2 7 -11 9 -11 14 0 4 10 6 9 6 -3 1 -10 5 -18 10
-18 5 0 11 -9 14 -21 5 -17 3 -18 -11 -7 -11 9 -14 9 -8 1 12 -22 16 -124 4
-117 -7 4 -8 2 -4 -4 11 -19 14 -89 4 -104 -8 -10 -9 -9 -4 4 3 12 1 15 -9 11
-8 -3 -13 -9 -10 -13 2 -4 -10 -5 -28 -3 -48 7 -50 7 -81 -1 -15 -4 -25 -3
-23 1 3 4 -8 8 -24 9 -15 1 -26 -2 -24 -7 3 -4 -4 -5 -14 -2 -18 5 -20 0 -18
-46 0 -28 -2 -53 -6 -57 -3 -4 -2 -15 4 -25 7 -13 6 -19 -1 -19 -6 0 -9 -3 -6
-8 2 -4 6 -29 7 -56 l3 -50 -57 -2 c-52 -2 -57 0 -45 14 7 10 1 7 -14 -6 -14
-13 -28 -20 -31 -15 -3 5 -30 8 -59 7 -29 -1 -59 4 -67 10 -11 8 -13 8 -7 -1
5 -9 0 -13 -14 -13 -14 0 -19 4 -14 12 4 7 -3 4 -16 -7 -13 -11 -20 -15 -17
-9 4 7 0 15 -9 18 -8 3 -12 2 -9 -4 3 -6 -3 -10 -15 -10 -14 0 -19 4 -14 13 4
6 -2 4 -13 -6 -13 -11 -23 -14 -27 -8 -4 6 -14 7 -23 4 -11 -4 -14 -3 -9 5 4
8 2 10 -7 6 -10 -4 -14 2 -14 20 0 16 4 23 11 19 6 -4 3 6 -8 21 -10 16 -14
26 -9 23 11 -7 10 230 -1 240 -3 4 2 15 11 26 10 11 13 18 7 14 -13 -7 -13
121 0 143 5 8 6 12 2 8 -4 -3 -19 0 -34 8 -16 8 -28 10 -30 4 -2 -6 -10 -6
-22 0 -13 7 -21 7 -25 0 -4 -6 -11 -7 -18 -3 -16 10 -57 10 -57 0 0 -4 -9 -3
-19 3 -13 6 -22 7 -26 0 -3 -5 -11 -7 -18 -4 -9 3 -12 -37 -12 -170 0 -96 3
-172 7 -170 11 7 3 -23 -12 -42 -9 -11 -10 -15 -2 -10 8 5 12 0 12 -14 0 -13
-4 -19 -12 -14 -7 5 -8 3 -2 -7 13 -21 14 -120 1 -112 -6 4 -7 1 -1 -8 13 -21
14 -120 1 -112 -6 4 -7 1 -1 -8 13 -21 14 -120 1 -112 -6 3 -7 1 -3 -6 4 -6
12 -9 17 -6 5 4 9 1 9 -5 0 -7 6 -10 13 -7 6 2 20 0 31 -5 14 -8 17 -7 11 3
-6 9 -3 11 8 6 10 -3 17 -2 17 4 0 6 7 3 16 -5 18 -19 28 -21 18 -4 -5 7 -2 9
8 5 9 -3 21 0 28 6 9 9 11 9 7 1 -4 -7 0 -15 9 -18 9 -3 12 -2 9 4 -7 12 36 7
56 -6 7 -4 9 -3 6 3 -4 6 0 13 8 17 8 3 17 1 20 -4 7 -12 85 -8 85 5 0 6 3 6
8 -1 9 -14 72 -14 72 0 0 7 3 8 8 1 10 -14 65 -17 56 -4 -4 6 6 3 22 -7 15
-11 25 -14 21 -7 -12 18 16 21 43 4 13 -9 21 -11 17 -4 -12 18 16 21 43 4 13
-9 21 -11 17 -4 -12 18 16 21 43 4 19 -12 22 -13 15 -2 -6 11 -4 13 8 8 10 -4
17 -1 17 6 0 9 2 9 8 1 9 -15 82 -14 82 1 0 6 3 6 8 -1 9 -14 72 -14 72 0 0 5
7 1 16 -10 8 -10 13 -13 9 -7 -3 8 0 13 8 13 8 0 18 7 21 16 3 8 2 12 -4 9 -6
-3 -10 -1 -10 4 0 6 4 11 9 11 6 0 6 12 0 32 -11 40 -11 40 -1 35 10 -7 7 56
-3 73 -5 8 -4 15 3 18 9 3 9 9 1 23 -16 30 -2 39 57 36 29 -1 54 2 54 7 0 5 6
4 13 -2 7 -6 18 -7 26 -2 8 4 20 6 28 3 7 -3 23 -3 36 0 21 6 22 9 17 98 -3
50 -2 93 3 96 4 2 2 13 -3 24 -7 13 -7 19 0 19 5 0 9 3 7 7 -1 5 1 8 4 8 3 0
14 7 24 15 11 8 16 10 12 3 -4 -6 -3 -14 3 -18 5 -3 10 -1 10 6 0 8 4 9 13 0
10 -8 17 -7 25 1 7 7 12 8 12 4 0 -5 8 -2 17 5 14 12 16 12 9 0 -6 -9 -5 -12
5 -9 8 3 25 1 38 -4 22 -8 23 -7 10 8 -13 16 -12 16 7 6 16 -8 24 -8 33 1 10
9 11 8 5 -7 -5 -13 -4 -17 3 -13 6 4 13 -4 15 -18 3 -13 2 -22 -3 -19 -4 2 -6
-7 -3 -21 2 -14 6 -36 8 -50 3 -14 1 -23 -5 -20 -5 4 -9 1 -9 -4 0 -6 6 -11
13 -11 8 0 7 -4 -3 -10 -13 -9 -13 -10 0 -10 13 0 13 -1 0 -10 -8 -5 -10 -10
-5 -10 6 0 10 -15 10 -34 0 -19 -3 -32 -7 -29 -11 6 -10 -5 3 -29 8 -15 8 -19
0 -14 -6 4 -11 2 -11 -3 0 -6 6 -11 13 -11 8 0 7 -4 -3 -10 -13 -9 -13 -10 0
-10 13 0 13 -1 0 -10 -10 -6 -11 -10 -2 -10 6 0 12 -5 12 -11 0 -5 -4 -8 -9
-4 -6 3 -8 -6 -5 -20 2 -14 6 -36 8 -50 3 -14 1 -23 -5 -20 -5 4 -9 1 -9 -4 0
-6 6 -11 13 -11 8 0 7 -4 -3 -10 -13 -9 -13 -10 0 -10 12 0 12 -2 2 -9 -10 -6
-8 -10 10 -16 12 -4 26 -7 31 -6 4 1 7 -5 7 -12 0 -6 5 -4 11 5 9 17 11 17 37
0 14 -9 23 -12 19 -5 -12 18 16 21 43 4 13 -9 21 -11 17 -4 -12 18 16 21 43 4
19 -12 22 -13 15 -2 -6 11 -4 13 8 8 10 -4 17 -1 17 6 0 9 2 9 8 1 9 -15 82
-14 82 1 0 6 3 6 8 -1 9 -14 64 -13 74 1 5 6 8 6 8 -2 0 -7 7 -10 16 -6 9 3
20 0 25 -8 7 -11 9 -9 9 6 0 13 3 16 8 8 8 -13 29 -12 51 1 9 6 12 5 8 -1 -4
-6 0 -14 9 -17 8 -3 12 -2 9 4 -4 6 3 9 17 6 13 -2 31 0 40 5 10 5 19 5 22 0
8 -13 57 -6 66 9 5 7 7 22 5 32 -2 10 1 18 7 18 7 0 4 6 -7 13 -13 10 -15 16
-6 21 6 4 9 12 6 17 -4 5 0 9 7 9 8 0 9 3 3 8 -6 4 -11 25 -11 47 0 22 5 43
11 47 6 5 5 8 -4 8 -7 0 -11 6 -7 15 3 9 -3 19 -16 26 -11 6 -18 7 -15 2 3 -5
-17 -9 -44 -10 -44 0 -48 2 -37 16 7 9 1 6 -14 -7 -14 -13 -28 -20 -31 -15 -3
5 -30 8 -59 7 -29 -1 -59 4 -67 10 -11 8 -13 8 -7 -1 5 -9 0 -13 -14 -13 -14
0 -19 4 -14 13 4 6 -3 3 -16 -8 -13 -11 -20 -15 -17 -9 4 7 0 15 -9 18 -8 3
-12 2 -9 -4 3 -6 -3 -10 -15 -10 -14 0 -19 4 -14 13 4 6 -2 4 -13 -6 -21 -18
-58 -13 -46 7 4 6 -1 4 -11 -4 -18 -14 -18 -13 -14 23 2 22 0 37 -7 37 -5 0
-4 4 4 9 11 7 11 9 0 14 -9 3 -9 6 -2 6 8 1 9 10 3 31 -6 21 -5 30 3 30 8 0 8
3 2 8 -5 4 -10 26 -11 48 0 33 3 41 15 36 11 -4 13 -1 8 13 -6 15 -5 16 7 6 8
-7 20 -10 25 -7 5 4 13 2 16 -4 5 -8 11 -7 21 1 8 6 14 8 14 4 0 -4 6 -2 14 4
11 10 17 8 25 -6 6 -10 11 -13 11 -8 0 6 22 10 53 10 28 -1 58 3 66 9 11 8 13
8 8 -1 -4 -6 -3 -14 3 -18 5 -3 10 -1 10 5 0 6 5 8 10 5 6 -3 10 0 10 7 0 9 3
9 10 -2 5 -8 10 -10 10 -5 0 6 5 3 10 -5 5 -8 10 -10 10 -5 0 6 15 10 33 10
17 -1 38 3 45 8 9 8 12 7 10 -3 -2 -8 4 -15 12 -16 41 -3 44 -5 35 -12 -12 -9
-15 -53 -3 -46 8 5 0 -45 -8 -55 -1 -1 1 -14 7 -28 5 -13 6 -22 1 -20 -4 3 -8
-6 -8 -19 -1 -13 2 -24 8 -24 5 0 6 5 2 12 -5 7 -3 8 6 3 10 -6 9 -11 -5 -22
-11 -7 -13 -13 -6 -13 7 0 10 -4 6 -9 -7 -12 4 -19 38 -25 15 -2 27 0 27 5 0
6 5 7 12 3 17 -11 68 -10 68 1 0 5 5 4 12 -3 8 -8 17 -8 30 -1 13 7 23 7 32
-1 19 -15 29 15 15 42 -7 13 -7 18 -1 14 7 -4 9 6 8 26 -2 18 1 38 6 45 6 7 4
14 -3 19 -8 5 -9 3 -4 -6 5 -9 4 -11 -4 -6 -9 6 -9 11 0 22 6 8 8 14 4 14 -4
0 -2 6 4 14 8 10 9 16 1 21 -6 3 -8 11 -4 16 3 5 0 17 -7 25 -10 12 -9 13 5 8
9 -4 16 -1 16 6 0 7 7 10 15 6 8 -3 15 -1 15 5 0 6 7 3 16 -6 12 -11 20 -13
27 -6 14 14 30 14 21 0 -4 -8 -1 -8 12 -1 11 5 25 7 33 4 8 -2 11 0 7 6 -4 6
2 8 14 5 11 -3 20 -10 20 -17 0 -6 4 -6 9 3 6 9 10 10 16 2 5 -9 10 -9 21 0 8
6 14 8 14 4 0 -4 8 -1 17 6 14 12 16 12 9 0 -6 -9 -5 -12 5 -9 8 3 25 1 38 -4
22 -8 23 -7 10 8 -13 16 -12 16 6 7 23 -12 54 -11 74 2 10 6 12 4 6 -5 -6 -10
-3 -12 13 -8 12 4 25 2 28 -3 3 -6 11 -5 20 2 8 6 14 8 14 4 0 -4 8 -1 17 6
14 12 16 12 9 0 -6 -9 -5 -12 5 -9 8 3 25 1 38 -4 22 -8 23 -7 10 9 -12 14
-12 16 0 8 20 -11 73 -16 66 -6 -3 5 4 7 15 4 11 -3 20 -10 20 -17 0 -6 4 -6
9 3 6 9 10 10 16 2 5 -9 10 -9 21 0 8 6 14 8 14 4 0 -4 8 -1 17 6 14 12 16 12
9 0 -6 -9 -5 -12 5 -9 8 3 25 1 38 -4 22 -8 23 -7 10 9 -12 14 -12 16 0 8 20
-11 73 -16 66 -6 -3 5 4 7 15 4 11 -3 20 -10 20 -17 0 -6 4 -6 9 3 6 9 10 10
16 2 5 -9 10 -9 21 0 8 6 14 8 14 4 0 -4 6 -2 14 4 11 10 17 8 25 -6 6 -10 11
-13 11 -7 0 11 65 13 76 1 4 -4 13 -2 21 4 7 6 13 8 13 4 0 -4 6 -2 14 4 10 8
16 9 21 1 3 -6 11 -8 16 -5 5 4 9 1 9 -4 0 -6 7 -11 15 -11 12 0 14 -4 7 -16
-12 -21 -3 -56 12 -48 6 3 2 -2 -8 -10 -15 -12 -16 -16 -5 -16 11 0 12 -2 0
-9 -10 -6 -11 -13 -2 -29 14 -27 14 -35 -1 -26 -9 5 -9 2 1 -9 9 -11 10 -17 2
-17 -6 0 -11 -7 -11 -16 0 -8 4 -13 8 -10 4 3 7 -8 6 -23 -2 -26 1 -28 30 -26
17 2 37 -2 45 -9 11 -8 13 -8 8 0 -8 14 127 14 140 0 5 -5 3 -6 -4 -2 -7 4
-13 2 -13 -3 0 -6 6 -11 13 -11 8 0 7 -4 -3 -10 -10 -6 -11 -10 -2 -10 6 0 12
-5 12 -11 0 -5 -4 -8 -9 -4 -5 3 -13 0 -17 -6 -4 -7 -3 -9 4 -5 6 3 13 2 17
-4 3 -5 1 -10 -6 -10 -9 0 -9 -3 0 -14 10 -11 8 -15 -6 -19 -17 -4 -17 -5 0
-6 9 0 17 -6 17 -12 0 -5 -4 -8 -9 -5 -9 6 -4 -54 5 -63 2 -2 -1 -13 -7 -24
-8 -14 -8 -18 0 -13 6 4 11 3 11 -3 0 -5 -6 -12 -13 -14 -7 -4 -5 -6 6 -7 9
-2 23 -3 30 -4 6 -1 17 2 24 6 6 5 13 5 16 1 4 -6 639 -10 668 -4 9 2 4 125
-6 141 -8 13 -7 13 8 1 16 -13 17 -12 9 10 -4 13 -7 35 -6 49 1 14 -3 36 -8
49 -8 22 -7 23 9 10 9 -8 14 -9 10 -3 -11 20 -17 85 -7 79 6 -3 7 1 4 9 -3 9
-11 16 -18 16 -6 0 -4 4 4 10 8 5 11 12 7 16 -4 4 -2 13 3 20 8 8 6 17 -5 28
-9 9 -12 16 -6 16 6 0 9 16 7 36 -1 23 2 38 11 41 7 3 10 10 6 17 -3 6 3 3 14
-7 14 -12 23 -15 28 -7 3 5 10 8 15 5 5 -3 12 0 16 6 5 9 11 7 21 -6 7 -11 13
-14 13 -9 0 6 21 10 48 9 26 0 47 -5 47 -10 0 -6 4 -16 8 -22 5 -8 3 -13 -4
-13 -10 0 -10 -3 -2 -11 6 -6 8 -22 4 -38 -8 -31 -8 -42 2 -58 4 -7 3 -22 -3
-33 -8 -14 -8 -26 0 -40 8 -15 8 -20 -1 -20 -8 0 -8 -4 1 -15 11 -13 15 -13
21 -3 5 7 9 8 9 2 0 -6 24 -10 63 -8 34 1 68 -3 76 -10 11 -8 13 -8 7 2 -8 13
14 17 30 4 5 -4 8 -5 7 -3 -2 2 6 10 16 17 14 10 18 23 15 49 -1 20 1 33 6 30
4 -3 6 4 3 15 -3 11 -10 23 -15 26 -5 3 -1 15 9 26 9 11 13 18 8 16 -6 -2 -10
2 -10 7 0 5 4 9 8 7 5 -1 5 3 1 10 -4 7 -9 27 -9 45 -2 27 1 31 11 22 10 -8
14 -8 14 -1 0 11 44 7 64 -5 6 -4 4 2 -4 12 -12 15 -12 17 -1 10 20 -11 73
-16 66 -6 -3 5 4 7 15 4 11 -3 20 -10 20 -17 0 -6 4 -6 9 3 6 9 10 10 16 2 5
-9 10 -9 21 0 8 6 14 8 14 4 0 -4 6 -2 14 4 11 10 17 8 25 -6 6 -10 11 -13 11
-7 0 6 12 10 28 9 15 -1 33 3 41 9 11 8 13 8 7 -1 -4 -7 -4 -13 1 -14 4 0 16
-2 26 -4 9 -2 15 0 12 4 -2 5 13 8 35 7 23 -1 42 -7 45 -14 3 -8 10 -10 17 -6
10 6 11 5 1 -8 -7 -8 -10 -18 -6 -21 3 -4 1 -7 -5 -7 -13 0 -4 -31 12 -42 8
-6 8 -8 0 -8 -13 0 -13 -108 0 -129 6 -9 5 -12 -1 -8 -6 4 -13 -3 -16 -14 -4
-17 -9 -19 -24 -10 -11 5 -25 6 -33 1 -7 -4 -19 -6 -25 -3 -23 8 -115 8 -115
-1 0 -5 -6 -4 -13 2 -7 6 -18 7 -25 3 -6 -4 -37 -4 -67 -1 -31 3 -55 2 -55 -3
0 -5 -6 -5 -13 1 -7 6 -18 7 -26 3 -7 -4 -31 -5 -54 0 -24 4 -46 4 -51 -2 -6
-6 -5 -9 3 -9 11 0 11 -3 1 -15 -9 -11 -9 -15 -1 -15 7 0 10 -4 7 -8 -11 -18
-14 -62 -5 -68 5 -3 7 -10 4 -15 -10 -15 -11 -89 -2 -89 5 0 4 -7 -3 -15 -9
-10 -9 -15 -1 -15 6 0 10 -5 9 -12 -2 -9 59 -12 247 -12 232 -1 250 0 249 17
-1 9 3 17 10 17 6 0 4 5 -4 10 -12 8 -12 10 -1 10 10 0 10 5 -3 25 -15 22 -15
26 -2 31 11 4 13 11 8 22 -9 19 -8 114 1 129 8 12 66 11 86 -1 10 -6 12 -6 7
2 -8 14 20 12 43 -2 10 -6 12 -5 7 2 -5 8 0 12 13 12 10 0 22 -6 24 -12 4 -10
6 -10 6 -1 1 7 8 10 18 6 11 -5 14 -3 8 6 -6 10 -3 11 14 2 19 -11 20 -10 13
11 -7 19 -8 79 -2 98 5 15 1 100 -4 109 -4 6 -1 11 6 11 9 0 9 3 -2 10 -13 8
-12 10 3 10 9 0 17 4 17 10 0 5 10 8 23 6 12 -2 28 1 35 7 9 7 11 5 6 -9 -6
-15 -4 -17 6 -7 9 8 20 9 38 2 23 -9 24 -8 11 7 -13 16 -12 16 6 7 23 -12 54
-11 74 2 10 5 12 4 7 -3 -4 -7 -2 -12 3 -12 6 0 12 7 12 15 1 8 2 21 3 28 1 6
-1 27 -5 45 -6 26 -4 32 10 33 12 0 12 2 -4 9 -11 5 -14 9 -7 9 9 1 10 6 2 20
-6 13 -7 22 0 26 6 4 6 15 0 30 -8 20 -6 25 6 25 8 0 12 5 9 10 -4 6 -10 8
-15 5 -5 -3 -7 4 -5 15 4 21 -9 28 -20 10 -3 -5 -15 -6 -28 -1 -14 5 -30 5
-40 0 -11 -7 -17 -6 -17 1 0 8 -6 8 -20 0 -14 -8 -20 -8 -20 0 0 8 -6 8 -20 0
-14 -8 -20 -8 -20 0 0 8 -6 8 -20 0 -14 -8 -20 -8 -20 0 0 8 -6 8 -20 0 -14
-8 -20 -8 -20 0 0 8 -6 8 -20 0 -14 -8 -20 -8 -20 0 0 8 -6 8 -20 0 -14 -8
-20 -8 -20 0 0 8 -6 8 -20 0 -14 -8 -20 -8 -20 0 0 8 -6 8 -20 0 -14 -8 -20
-8 -20 0 0 8 -6 8 -20 0 -14 -8 -20 -8 -20 0 0 8 -6 8 -20 0 -14 -8 -20 -8
-20 0 0 8 -6 8 -20 0 -14 -8 -20 -8 -20 0 0 8 -6 8 -20 0 -13 -7 -20 -7 -20
-1 0 6 -8 7 -17 4 -15 -6 -69 -8 -75 -3 -10 6 -58 4 -58 -3 0 -4 -9 -3 -19 3
-14 7 -22 7 -26 0 -4 -6 -11 -7 -18 -3 -16 10 -57 10 -57 0 0 -4 -9 -3 -19 3
-14 7 -22 7 -26 0 -4 -6 -11 -7 -18 -3 -16 10 -57 10 -57 0 0 -4 -9 -3 -19 3
-14 7 -22 7 -26 0 -4 -6 -11 -7 -18 -3 -16 10 -57 10 -57 0 0 -4 -9 -3 -19 3
-14 7 -22 7 -26 0 -4 -7 -11 -7 -18 -2 -7 5 -21 6 -32 2 -11 -4 -30 -4 -42 1
-15 5 -23 5 -23 -2 0 -6 -7 -6 -19 1 -14 7 -22 7 -26 0 -4 -6 -11 -7 -18 -3
-16 10 -57 10 -57 0 0 -4 -9 -3 -19 3 -14 7 -22 7 -26 0 -4 -6 -11 -7 -18 -3
-16 10 -57 10 -57 0 0 -4 -9 -3 -19 3 -14 7 -22 7 -26 0 -4 -6 -11 -7 -18 -3
-16 10 -57 10 -57 0 0 -4 -9 -3 -19 3 -14 7 -22 7 -26 0 -4 -6 -11 -7 -18 -3
-16 10 -57 10 -57 0 0 -4 -9 -3 -19 3 -14 7 -22 7 -26 0 -4 -6 -11 -7 -18 -3
-16 10 -57 10 -57 0 0 -4 -7 -4 -16 1 -9 5 -32 6 -50 2 -18 -4 -36 -5 -39 -2
-8 9 -55 8 -55 -1 0 -4 -9 -3 -19 3 -14 7 -22 7 -26 0 -4 -6 -11 -7 -18 -3
-16 10 -57 10 -57 0 0 -4 -9 -3 -19 3 -14 7 -22 7 -26 0 -4 -6 -11 -7 -18 -3
-16 10 -57 10 -57 0 0 -4 -9 -3 -19 3 -14 7 -22 7 -26 0 -4 -7 -11 -7 -18 -2
-7 5 -21 6 -32 2 -11 -4 -29 -3 -40 2 -18 8 -20 18 -19 86 1 42 3 79 4 82 1 3
1 10 0 15 -1 6 -3 26 -5 45 -2 19 -3 40 -4 45 -1 6 -6 3 -11 -5 -7 -11 -10
-11 -10 -2 0 7 -4 10 -10 7 -5 -3 -10 0 -10 7 0 10 -2 10 -9 -1 -6 -9 -10 -10
-16 -2 -5 9 -10 9 -21 0 -8 -6 -14 -8 -14 -4 0 4 -8 1 -17 -6 -14 -12 -16 -12
-9 0 6 9 5 12 -5 9 -8 -3 -25 -1 -38 4 -22 8 -23 7 -10 -8 13 -16 12 -16 -7
-6 -16 8 -24 8 -33 -1 -10 -9 -11 -8 -5 7 5 13 4 17 -3 13 -6 -4 -13 4 -15 18
-3 13 -2 22 3 19 8 -4 2 43 -7 58 -3 4 3 8 13 8 14 0 15 2 5 9 -11 7 -20 71
-12 91 1 3 2 17 4 31 1 20 -3 25 -19 24 -11 -1 -28 2 -39 7 -13 7 -16 7 -12
-1 8 -13 -52 -10 -73 3 -10 6 -12 5 -7 -2 5 -8 -1 -12 -14 -12 -14 0 -19 4
-14 13 4 6 -1 4 -12 -5 -16 -14 -22 -14 -37 -3 -18 13 -34 60 -16 50 5 -4 9 1
9 10 0 9 -3 14 -7 12 -5 -3 -8 66 -8 153 0 87 3 156 6 154 8 -5 3 81 -5 95 -4
6 0 11 11 11 15 0 15 2 4 9 -8 5 -16 17 -17 25 -1 9 2 14 7 10 5 -3 9 0 9 5 0
6 -6 11 -12 11 -9 0 -8 4 2 10 8 5 10 10 4 10 -6 0 -10 19 -10 44 1 24 4 42 9
39 4 -2 7 1 7 6 0 6 -6 11 -12 11 -9 0 -8 4 2 10 8 5 10 10 4 10 -6 0 -10 19
-10 44 1 24 4 42 9 39 4 -2 7 1 7 6 0 6 -6 11 -12 11 -9 0 -8 4 2 10 8 5 10
10 4 10 -6 0 -10 19 -10 44 1 24 4 42 9 39 4 -2 7 1 7 6 0 6 -6 11 -12 11 -9
0 -8 4 2 10 8 5 10 10 4 10 -6 0 -10 19 -10 44 1 24 4 42 9 39 4 -2 7 1 7 6 0
6 -6 11 -12 11 -9 0 -8 4 2 10 8 5 11 10 5 10 -6 0 -10 35 -10 84 0 46 3 82 8
79 9 -6 9 1 -3 31 -8 22 -7 26 7 26 14 0 14 2 -3 15 -11 8 -14 14 -6 15 9 0
10 5 3 19 -9 16 -7 18 22 18 18 -1 40 2 50 6 11 4 16 3 12 -3 -4 -7 3 -7 19 0
17 6 27 6 32 -1 4 -7 10 -6 19 1 8 7 15 7 19 1 6 -9 13 -9 54 4 19 6 20 10 10
23 -10 12 -10 14 0 8 15 -9 15 -5 2 28 -8 22 -7 26 8 26 16 1 16 1 0 11 -10 5
-18 15 -18 20 0 6 4 8 9 4 10 -5 5 40 -5 57 -3 4 3 8 13 8 17 1 17 1 0 11 -17
10 -17 12 -1 23 13 10 14 15 4 21 -9 5 -11 4 -6 -3 4 -7 3 -12 -1 -12 -5 0 -9
29 -9 64 1 35 4 62 9 59 4 -2 7 0 7 6 0 5 -6 12 -12 14 -9 4 -10 6 -1 6 8 1 9
10 2 33 -5 18 -9 34 -9 35 0 1 8 0 18 -3 14 -5 14 -4 3 4 -15 11 -24 75 -9 66
10 -7 10 -1 -2 30 -8 22 -7 26 8 26 16 1 16 1 0 11 -10 5 -18 15 -18 20 0 6 4
8 9 4 10 -5 5 40 -5 57 -3 4 3 8 13 8 17 1 17 1 0 11 -17 10 -17 12 -1 23 13
10 14 15 4 21 -9 5 -11 4 -6 -3 4 -7 3 -12 -1 -12 -5 0 -9 29 -9 64 1 35 4 62
9 59 4 -2 7 0 7 6 0 5 -6 12 -12 14 -9 4 -10 6 -1 6 8 1 9 10 2 33 -5 18 -9
34 -9 35 0 1 8 0 18 -3 14 -5 14 -4 3 4 -15 11 -24 75 -9 66 10 -7 10 -1 -2
30 -8 22 -7 26 8 27 15 0 15 1 -1 8 -17 6 -16 8 7 19 17 7 27 8 32 1 4 -7 10
-6 19 1 8 7 16 7 19 2 3 -6 20 -7 41 -2 19 4 35 5 35 1 0 -3 11 -6 25 -6 14 0
25 3 25 7 0 4 10 4 22 -1 12 -4 37 -5 55 -1 18 5 33 5 33 1 0 -3 11 -6 25 -6
14 0 25 3 25 7 0 4 11 3 25 -2 15 -6 27 -6 30 0 3 5 16 5 30 -2 26 -12 33 -28
13 -28 -9 0 -8 -4 2 -10 8 -5 11 -10 6 -10 -5 0 -2 -8 5 -17 12 -14 12 -15 0
-9 -10 7 -12 3 -6 -14 5 -15 4 -20 -3 -16 -7 4 -9 -2 -7 -16 3 -13 9 -24 15
-26 6 -2 6 -10 1 -20 -5 -9 -7 -25 -6 -34 2 -10 -2 -18 -8 -18 -8 0 -7 -4 2
-9 7 -5 11 -14 7 -19 -4 -6 3 -16 15 -23 17 -9 23 -8 30 2 7 11 9 11 9 -1 0
-12 2 -12 9 -1 6 10 13 10 28 2 11 -5 23 -8 26 -5 9 9 66 11 61 2 -3 -4 -1 -8
5 -8 5 0 12 6 14 13 3 7 6 4 6 -6 1 -10 5 -16 10 -12 5 3 12 1 16 -5 3 -5 0
-10 -7 -10 -10 0 -10 -2 -1 -8 8 -5 9 -13 3 -22 -5 -8 -5 -21 1 -31 6 -12 4
-19 -9 -24 -16 -6 -16 -7 2 -21 13 -9 15 -14 6 -14 -9 0 -8 -6 5 -20 13 -15
14 -19 4 -15 -11 4 -14 -3 -13 -29 3 -49 20 -62 79 -60 28 0 56 -4 64 -10 11
-8 13 -8 7 2 -5 8 0 12 14 12 14 0 19 -4 14 -12 -4 -7 1 -6 12 3 19 17 49 15
38 -2 -3 -5 -2 -9 3 -9 4 0 9 -20 9 -45 1 -25 -2 -45 -7 -45 -6 0 -6 -7 -1
-17 5 -10 8 -37 6 -61 -1 -29 1 -40 9 -35 7 3 4 -3 -6 -14 -24 -28 -5 -42 53
-38 26 2 48 -2 52 -9 6 -8 8 -8 8 0 0 7 14 10 36 7 26 -3 34 0 28 8 -5 8 -3 9
7 3 19 -12 69 -13 69 -2 0 5 7 2 16 -6 8 -9 21 -13 27 -9 7 4 20 6 31 4 12 -2
16 1 11 10 -6 9 -4 10 6 3 19 -12 69 -13 69 -2 0 5 7 2 16 -6 17 -17 29 -21
20 -7 -3 5 17 7 44 5 37 -2 49 0 44 9 -5 9 -4 9 6 0 7 -6 19 -9 28 -6 11 5 13
3 7 -7 -6 -10 -4 -11 6 -4 22 13 42 14 58 1 11 -9 13 -9 8 0 -5 8 6 10 44 7
38 -3 49 -1 43 8 -6 9 -3 9 9 -1 9 -7 17 -10 17 -6 0 4 8 1 17 -6 14 -12 16
-12 8 0 -6 11 -4 13 8 8 9 -3 19 -1 23 5 5 7 12 5 21 -7 7 -11 13 -14 13 -8 0
6 27 9 70 8 38 -1 67 2 64 7 -3 4 0 8 7 8 9 0 9 3 0 14 -8 9 -8 16 -2 20 6 4
7 15 1 30 -4 12 -4 29 0 36 5 9 4 20 -2 27 -6 7 -7 13 -2 13 11 0 10 51 0 68
-4 7 -3 12 2 12 6 0 8 8 5 18 -4 17 4 18 112 17 65 -1 119 3 122 9 4 5 0 6 -8
2 -8 -4 -5 0 5 8 18 15 15 21 -8 17 -5 -1 -5 4 0 11 15 19 16 68 1 68 -6 0 -4
5 6 11 12 7 15 15 8 27 -6 11 -6 24 0 34 6 11 5 19 -2 24 -8 5 -9 3 -4 -6 5
-9 4 -11 -4 -6 -9 6 -9 11 -1 21 6 7 10 17 9 21 -3 14 12 44 23 44 5 0 7 -4 4
-8 -2 -4 4 -8 15 -8 10 0 19 5 19 11 0 5 5 3 10 -5 9 -13 10 -13 10 0 0 9 3
11 8 5 8 -11 42 -16 42 -6 0 4 9 7 19 7 11 0 17 -4 15 -8 -3 -4 0 -8 5 -8 6 0
11 5 11 11 0 5 4 8 9 5 5 -3 26 -8 47 -11 24 -3 34 -1 25 4 -8 6 -9 11 -3 15
13 8 12 46 -2 65 -8 11 -8 13 2 7 16 -10 13 25 -3 36 -6 5 -5 8 2 8 7 0 10 7
6 17 -5 11 -3 14 6 8 10 -6 11 -3 3 11 -5 11 -7 32 -5 47 3 21 1 27 -9 21 -7
-4 -4 2 7 13 11 11 23 19 28 16 4 -2 7 1 7 8 0 7 6 5 13 -6 10 -12 16 -15 21
-6 5 8 13 8 28 0 16 -9 19 -8 13 2 -6 9 -3 11 8 6 10 -4 17 -1 17 6 0 7 3 8 8
2 11 -16 46 -19 36 -3 -6 10 -4 10 7 2 20 -15 61 -16 52 -1 -5 9 -3 9 8 0 8
-6 28 -10 44 -8 17 1 38 -2 49 -7 14 -8 17 -7 11 3 -6 9 -3 11 8 6 9 -3 18 -1
21 6 3 9 5 8 5 -1 1 -7 6 -10 11 -7 6 4 17 2 24 -4 11 -9 18 -8 30 4 15 15 16
13 15 -22 0 -21 2 -48 5 -60 2 -13 1 -25 -5 -28 -5 -4 -9 -11 -9 -16 0 -6 4
-8 8 -5 4 2 8 -11 8 -30 0 -19 -5 -34 -11 -34 -5 0 -3 -5 5 -10 12 -8 12 -10
1 -10 -11 0 -11 -3 -1 -15 8 -10 9 -15 1 -15 -7 0 -8 -8 0 -26 9 -25 8 -26 -8
-13 -17 13 -17 13 0 -7 18 -21 23 -39 9 -30 -5 3 -9 -1 -9 -9 0 -8 5 -11 11
-8 6 3 5 0 -1 -8 -14 -14 -18 -33 -5 -25 4 2 8 -11 8 -30 0 -19 -5 -34 -11
-34 -5 0 -3 -5 5 -10 10 -6 11 -10 3 -10 -9 0 -10 -7 -3 -26 6 -14 6 -23 2
-20 -9 5 -8 -53 2 -92 3 -13 1 -20 -5 -17 -12 8 -11 3 1 -30 5 -14 6 -24 2
-21 -5 3 -9 -1 -9 -9 0 -8 3 -12 7 -10 3 2 6 -5 6 -15 0 -10 -4 -16 -8 -14 -4
3 -8 0 -8 -5 0 -6 6 -11 13 -11 9 0 9 -2 -1 -9 -11 -7 -11 -11 2 -23 14 -14
13 -16 -7 -22 -22 -6 -22 -7 -3 -21 11 -8 14 -15 7 -15 -8 0 -9 -5 -2 -17 6
-12 5 -20 -6 -29 -13 -9 -13 -13 -3 -19 9 -5 11 -4 6 3 -4 7 -2 12 3 12 11 0
10 -35 -2 -46 -10 -10 -9 -26 1 -20 4 2 8 -11 8 -30 0 -19 -5 -34 -11 -34 -5
0 -3 -5 5 -10 12 -8 12 -10 1 -10 -11 0 -11 -3 0 -17 8 -9 9 -14 2 -10 -7 5
-9 0 -6 -13 3 -12 8 -18 11 -15 3 2 11 0 19 -6 10 -9 13 -8 13 0 0 8 5 9 17 3
9 -5 28 -6 43 -2 15 4 33 4 40 0 7 -5 24 -4 37 1 12 5 23 5 23 1 0 -5 12 -8
27 -8 20 1 27 -4 28 -21 1 -19 -1 -21 -14 -10 -12 10 -13 9 -7 -1 4 -7 9 -24
12 -38 3 -19 1 -24 -8 -18 -10 6 -9 3 1 -9 7 -9 10 -17 5 -17 -5 0 -2 -5 6
-10 9 -6 11 -10 3 -10 -7 0 -10 -7 -6 -17 5 -11 3 -14 -6 -8 -10 6 -11 3 -2
-14 7 -11 8 -21 4 -21 -4 0 -1 -5 7 -10 9 -6 11 -10 3 -10 -7 0 -10 -7 -6 -17
5 -12 3 -14 -7 -8 -9 6 -11 4 -5 -5 13 -21 16 -72 4 -64 -8 4 -7 0 0 -15 7
-11 8 -21 4 -21 -4 0 -2 -5 4 -11 14 -14 5 -51 -11 -42 -6 3 -3 -3 7 -14 11
-13 14 -23 8 -27 -6 -4 -7 -14 -4 -23 4 -11 3 -14 -5 -9 -8 5 -10 2 -6 -8 3
-9 11 -13 18 -9 6 4 5 -1 -3 -10 -7 -9 -10 -17 -6 -17 4 0 2 -7 -5 -16 -8 -8
-9 -14 -4 -12 5 2 9 -1 9 -7 0 -5 -4 -9 -9 -7 -5 2 -4 -4 3 -12 7 -8 10 -19 7
-25 -3 -5 0 -12 6 -14 10 -4 10 -6 1 -6 -7 -1 -10 -8 -6 -18 5 -11 3 -14 -6
-8 -10 6 -11 3 -2 -14 7 -11 8 -21 4 -21 -4 0 -1 -5 7 -10 9 -6 11 -10 3 -10
-7 0 -10 -7 -6 -17 5 -11 3 -14 -6 -8 -10 6 -11 3 -2 -12 6 -11 7 -23 3 -27
-3 -4 0 -11 8 -16 10 -6 11 -10 3 -10 -7 0 -10 -7 -6 -17 5 -12 3 -14 -8 -8
-11 7 -10 4 2 -15 17 -27 14 -55 -4 -43 -7 4 -5 -4 4 -17 17 -27 14 -55 -4
-43 -7 4 -5 -4 4 -17 17 -27 14 -55 -4 -43 -7 4 -5 -4 4 -17 17 -27 14 -54 -4
-43 -7 4 -6 -1 2 -10 7 -9 10 -17 5 -17 -5 0 -2 -5 6 -10 9 -6 11 -10 3 -10
-7 0 -10 -7 -6 -17 5 -11 3 -14 -6 -8 -10 6 -11 3 -2 -14 7 -11 8 -21 4 -21
-4 0 -1 -5 7 -10 9 -6 11 -10 3 -10 -7 0 -10 -7 -6 -17 5 -11 3 -14 -6 -8 -10
5 -11 3 -4 -11 5 -11 8 -29 7 -41 0 -13 3 -23 8 -23 5 0 6 -5 3 -10 -4 -6 -11
-7 -17 -4 -6 4 -5 -3 2 -16 9 -16 18 -21 36 -17 13 2 24 -1 25 -7 0 -6 4 -2 9
9 l9 20 0 -20 c1 -15 3 -17 10 -6 7 11 11 10 20 -5 9 -16 10 -17 11 -3 0 14 6
16 35 9 24 -5 35 -4 35 4 0 6 5 4 10 -4 9 -13 10 -13 10 0 1 12 3 11 14 -3 14
-18 14 -18 19 0 9 30 6 1315 -3 1337 -5 12 -9 15 -9 7 -1 -8 -8 -11 -21 -8
-11 3 -23 1 -26 -4 -3 -6 -16 -3 -31 6 -14 10 -23 12 -19 7 3 -6 2 -13 -3 -16
-5 -3 -12 1 -15 10 -5 13 -9 14 -21 4 -12 -10 -18 -10 -32 1 -14 12 -16 12 -8
0 6 -11 4 -13 -9 -8 -10 4 -22 7 -27 7 -6 0 -7 5 -4 10 3 6 1 10 -6 10 -9 0
-9 3 0 14 9 10 9 16 1 21 -7 4 -8 11 -2 18 5 7 6 21 2 32 -4 11 -4 30 1 41 4
13 3 26 -3 32 -8 8 -8 15 1 26 9 10 9 16 1 21 -8 5 -8 10 0 20 8 10 8 15 0 20
-8 5 -8 10 0 20 8 9 8 15 0 20 -6 3 -7 12 -3 18 9 15 10 37 2 62 -3 11 -3 29
1 40 4 11 3 25 -2 32 -5 7 -5 14 1 17 7 4 7 15 1 31 -6 16 -6 27 1 31 6 4 6
11 -2 20 -6 8 -7 14 -2 14 5 0 9 10 7 23 -1 12 -3 22 -4 22 -6 0 -3 68 3 72 4
3 3 11 -3 18 -8 10 -8 15 0 20 8 5 8 10 0 20 -8 10 -8 15 0 20 8 5 8 10 0 20
-6 7 -7 15 -3 18 10 6 9 79 0 94 -4 7 -3 14 2 18 6 3 7 15 1 29 -4 12 -4 29 0
36 5 8 4 22 -1 32 -7 13 -6 18 2 18 8 0 9 4 0 13 -6 8 -8 17 -4 20 3 4 2 7 -3
8 -50 5 -64 4 -64 -5 0 -6 -5 -4 -10 4 -5 8 -10 11 -10 7 0 -4 -10 -3 -21 4
-13 7 -19 7 -15 1 8 -14 -34 -12 -53 2 -12 9 -13 8 -7 -3 7 -10 3 -12 -13 -6
-14 4 -21 2 -21 -6 0 -7 -6 -4 -14 7 -11 14 -11 21 -3 26 9 6 9 8 1 8 -7 0
-15 7 -18 16 -3 9 -2 12 4 9 7 -4 9 3 6 19 -2 14 1 27 7 30 9 3 9 5 0 5 -7 1
-10 8 -7 16 4 8 1 15 -6 15 -9 0 -10 3 -1 13 6 8 8 17 4 21 -4 4 -1 11 7 16 9
6 10 10 3 10 -6 0 -10 9 -8 19 4 23 -24 62 -31 44 -4 -8 -13 -9 -27 -4 -28 11
-36 11 -65 0 -15 -6 -21 -5 -17 1 8 12 8 12 -33 1 -20 -6 -30 -6 -27 0 4 5 1
9 -4 9 -6 0 -11 -4 -11 -9 0 -6 -12 -6 -30 -1 -18 5 -30 5 -30 -1 0 -5 -5 -9
-11 -9 -5 0 -8 4 -5 9 7 11 -67 6 -85 -5 -7 -4 -10 -3 -6 2 3 5 -14 9 -39 9
-38 0 -54 -11 -41 -28 1 -2 -4 -11 -11 -20 -9 -10 -10 -17 -2 -22 6 -3 7 -12
3 -18 -10 -16 -10 -38 0 -59 4 -10 4 -18 0 -18 -4 0 -8 -13 -8 -30 0 -16 4
-30 10 -30 5 0 4 -5 -3 -12 -14 -14 -16 -32 -4 -24 5 3 9 -1 9 -9 0 -10 -5
-11 -19 -4 -13 7 -18 6 -18 -3 0 -9 -3 -10 -8 -2 -4 6 -18 10 -32 9 -14 -1
-31 3 -39 9 -11 8 -13 8 -7 -1 4 -8 1 -13 -9 -13 -10 0 -14 5 -10 13 4 6 -1 3
-9 -7 -9 -11 -16 -15 -16 -9 0 7 -17 10 -44 8 -24 -1 -48 0 -53 4 -11 8 -13
82 -2 75 5 -3 6 2 3 10 -3 9 -11 16 -18 16 -6 0 -4 4 4 10 8 5 11 12 7 16 -4
4 -2 13 3 20 8 8 6 17 -5 28 -10 10 -12 16 -5 16 7 0 10 6 7 14 -3 7 -1 18 4
23 7 7 5 16 -6 27 -10 10 -12 16 -5 16 7 0 10 6 7 14 -3 7 -1 18 4 23 7 7 5
16 -6 27 -9 9 -12 16 -7 16 13 0 12 90 -2 90 -6 0 -3 5 7 11 12 7 15 15 9 22
-10 15 -10 48 2 66 5 8 5 12 0 8 -5 -3 -10 17 -10 44 -1 30 3 46 9 42 6 -3 7
-1 4 4 -12 18 -17 84 -7 78 6 -3 7 1 4 9 -3 9 -11 16 -18 16 -6 0 -4 4 4 10 8
5 11 12 7 16 -4 4 -2 13 3 20 8 8 6 17 -5 28 -9 9 -12 16 -7 16 13 0 12 90 -2
90 -6 0 -3 5 7 11 10 6 14 15 10 22 -11 17 -11 57 -1 63 5 3 5 11 -1 17 -5 7
-10 17 -11 22 0 6 -10 9 -22 7 -13 -3 -18 0 -13 8 6 9 2 9 -14 1 -12 -7 -26
-9 -31 -6 -6 3 -10 0 -10 -7 0 -10 -2 -10 -8 -1 -9 14 -68 13 -90 -1 -7 -4
-12 -4 -11 1 3 20 -2 27 -11 13 -7 -11 -10 -11 -10 -2 0 7 -4 10 -10 7 -6 -4
-7 2 -1 17 4 13 5 35 0 50 -4 16 -4 28 1 28 9 0 8 19 -3 36 -3 6 -3 14 0 18 7
6 6 54 -1 101 -2 11 -9 21 -16 23 -7 3 -10 0 -6 -6 7 -11 -12 -11 -31 1 -6 4
-14 3 -18 -3 -4 -7 -12 -7 -25 0 -14 7 -19 6 -24 -6 -5 -13 -9 -14 -20 -5 -8
7 -31 11 -53 9 l-38 -3 0 135 0 135 -2058 1 c-2039 2 -2059 2 -2054 -18z m98
-256 c8 3 24 1 36 -3 12 -5 25 -5 27 0 3 4 44 7 91 5 58 -1 83 1 79 8 -5 7 -2
8 7 2 20 -12 63 -12 71 0 5 7 8 6 8 -2 0 -7 5 -10 10 -7 6 3 10 1 10 -5 0 -6
5 -8 13 -3 6 4 20 6 31 4 12 -2 16 1 11 10 -6 9 -4 10 6 3 21 -13 69 -13 69 0
0 6 5 4 10 -4 5 -8 10 -10 10 -5 0 6 5 3 10 -5 5 -8 10 -10 10 -4 0 12 29 12
49 -1 10 -6 12 -4 6 5 -6 10 -4 12 7 7 9 -3 20 -1 26 5 8 8 13 6 18 -6 5 -14
9 -15 15 -4 7 10 9 10 9 -1 0 -11 4 -10 16 5 8 10 12 13 9 6 -5 -10 -1 -13 16
-10 13 2 27 8 31 13 5 6 8 5 8 -3 0 -7 5 -10 10 -7 6 3 10 0 10 -7 0 -9 3 -9
10 2 8 13 10 13 10 1 0 -11 4 -10 16 5 8 10 13 14 10 7 -5 -8 6 -11 36 -9 24
1 49 -2 57 -8 12 -9 13 -8 6 3 -6 11 -4 13 7 8 9 -3 20 -1 26 5 8 8 13 6 18
-6 5 -14 9 -15 15 -4 7 10 9 10 9 -1 0 -11 4 -10 16 5 8 10 12 13 9 6 -5 -10
-1 -13 16 -10 13 2 27 8 31 13 5 6 8 5 8 -3 0 -7 5 -10 10 -7 6 3 10 0 10 -7
0 -9 3 -9 10 2 8 13 10 13 10 1 0 -11 4 -10 16 5 8 10 13 14 10 7 -5 -8 6 -11
36 -9 24 1 49 -2 57 -8 12 -9 13 -8 6 3 -6 11 -4 13 7 8 9 -3 20 -1 26 5 8 8
13 6 18 -6 5 -14 9 -15 15 -4 7 10 9 10 9 -1 0 -11 4 -10 16 5 8 10 12 13 9 6
-5 -10 -1 -13 16 -10 13 2 27 8 31 13 5 6 8 5 8 -3 0 -7 5 -10 10 -7 6 3 10 0
10 -7 0 -9 3 -9 10 2 8 13 10 13 10 1 0 -11 4 -10 16 5 8 10 13 14 10 7 -5 -8
6 -11 36 -9 24 1 49 -2 57 -8 12 -9 13 -8 6 3 -6 11 -4 13 7 8 9 -3 20 -1 26
5 8 8 13 6 18 -6 5 -14 9 -15 15 -4 7 10 9 10 9 -1 0 -11 4 -10 16 5 8 10 12
13 9 6 -5 -10 -1 -13 16 -10 13 2 27 8 31 13 5 6 8 5 8 -3 0 -7 5 -10 10 -7 6
3 10 0 10 -7 0 -9 3 -9 10 2 8 13 10 13 10 1 0 -11 4 -10 16 5 8 10 13 14 10
7 -4 -8 3 -11 22 -11 16 1 34 -2 40 -6 6 -3 13 -3 16 2 6 11 157 9 175 -3 10
-6 12 -4 6 5 -6 10 -4 12 7 7 9 -3 20 -1 26 5 8 8 13 6 18 -6 5 -14 9 -15 15
-4 7 10 9 10 9 -1 0 -11 4 -10 16 5 8 10 12 13 9 6 -5 -10 -1 -13 16 -10 13 2
27 8 31 13 5 6 8 5 8 -3 0 -7 5 -10 10 -7 6 3 10 0 10 -7 0 -9 3 -9 10 2 8 13
10 13 10 1 0 -11 4 -10 16 5 8 10 13 14 10 7 -4 -8 3 -11 22 -11 16 1 34 -2
40 -6 6 -3 13 -2 16 2 3 5 44 8 91 6 58 -1 83 1 79 8 -5 7 -2 8 7 2 20 -12 63
-12 71 0 5 7 8 6 8 -2 0 -7 5 -10 10 -7 6 3 10 1 10 -5 0 -6 5 -8 13 -3 6 4
20 6 31 4 12 -2 16 1 11 10 -6 9 -4 10 6 3 20 -12 63 -12 71 0 5 7 8 6 8 -2 0
-7 5 -10 10 -7 6 3 10 2 10 -3 0 -9 29 -10 45 -1 16 9 159 4 174 -5 10 -7 12
-5 6 4 -6 10 -4 12 7 7 9 -3 20 -1 26 5 8 8 13 6 18 -6 5 -14 9 -15 15 -4 7
10 9 10 9 -1 0 -11 4 -10 16 5 8 10 12 13 9 6 -5 -10 -1 -13 16 -10 13 2 27 8
31 13 5 6 8 5 8 -3 0 -7 5 -10 10 -7 6 3 10 0 10 -7 0 -9 3 -9 10 2 8 13 10
13 10 1 0 -11 4 -10 16 5 8 10 13 14 10 7 -4 -8 3 -11 22 -11 16 1 34 -2 40
-6 6 -3 13 -2 16 2 3 5 44 8 91 6 58 -1 83 1 79 8 -5 7 -2 8 7 2 20 -12 63
-12 71 0 5 7 8 6 8 -2 0 -7 5 -10 10 -7 6 3 10 1 10 -5 0 -6 5 -8 13 -3 6 4
20 6 31 4 12 -2 16 1 11 10 -6 9 -4 10 6 3 20 -12 63 -12 71 0 5 7 8 6 8 -2 0
-7 5 -10 10 -7 6 3 10 2 10 -3 0 -9 29 -10 45 -1 16 9 159 4 174 -5 10 -7 12
-5 6 4 -6 10 -4 12 8 7 9 -3 19 -1 23 5 5 7 12 5 21 -7 7 -11 13 -13 13 -6 0
7 5 9 11 6 6 -4 8 -13 5 -20 -2 -7 -2 -15 1 -18 7 -7 7 -157 -1 -164 -3 -3 -1
-14 4 -24 6 -11 6 -19 0 -21 -15 -5 5 -28 29 -33 12 -2 20 -1 17 3 -2 4 11 8
30 8 19 1 34 -4 34 -10 0 -6 5 -4 10 4 6 10 10 11 10 3 0 -7 5 -13 11 -13 5 0
8 4 5 8 -3 5 1 9 9 9 8 0 12 -3 10 -7 -2 -3 5 -6 15 -6 11 0 16 6 13 16 -2 8
3 4 11 -10 8 -14 15 -19 16 -12 0 8 6 12 13 9 6 -2 10 -11 8 -18 -8 -33 -6
-139 3 -139 5 0 1 -7 -10 -16 -10 -8 -14 -13 -8 -10 7 3 15 -1 18 -10 3 -8 2
-13 -3 -10 -9 6 -7 -132 3 -141 3 -4 -2 -15 -11 -26 -10 -11 -12 -17 -5 -13 8
5 12 0 12 -14 0 -12 -4 -18 -10 -15 -6 3 -7 -1 -4 -9 3 -9 11 -13 18 -9 6 3 2
-4 -9 -17 -11 -13 -14 -20 -7 -16 8 5 12 0 12 -14 0 -14 -4 -19 -12 -14 -10 6
-10 4 -2 -7 6 -8 11 -42 10 -76 -1 -36 2 -63 8 -63 5 0 1 -7 -10 -16 -10 -8
-14 -13 -8 -10 7 3 15 -1 18 -10 3 -8 2 -13 -2 -10 -4 2 -7 -58 -7 -135 0 -80
4 -139 9 -139 6 0 1 -7 -10 -16 -10 -8 -14 -13 -8 -10 7 3 15 -1 18 -10 3 -8
2 -13 -3 -10 -9 6 -7 -132 3 -141 3 -4 -2 -15 -11 -26 -10 -11 -12 -17 -5 -13
8 5 12 0 12 -14 0 -12 -4 -18 -10 -15 -6 3 -7 -1 -4 -9 3 -9 11 -13 18 -9 6 3
2 -4 -9 -17 -11 -13 -14 -20 -7 -16 8 5 12 0 12 -14 0 -14 -4 -19 -12 -14 -10
6 -10 4 -2 -7 6 -8 11 -42 10 -76 -1 -36 2 -63 8 -63 5 0 1 -7 -10 -16 -10 -8
-14 -13 -8 -10 7 3 15 -1 18 -10 3 -8 2 -13 -3 -10 -5 4 -7 -20 -5 -53 2 -43
-1 -62 -11 -71 -8 -7 -15 -9 -15 -4 0 5 -20 9 -45 9 -25 0 -45 -3 -45 -7 0 -4
-11 -3 -25 2 -15 6 -26 6 -30 -1 -4 -5 -12 -6 -18 -2 -7 4 -19 6 -27 5 -10 -2
-16 6 -18 23 -1 18 2 24 10 19 7 -5 8 -3 2 7 -13 21 -14 120 -1 112 6 -4 7 -1
1 8 -13 21 -14 120 -1 112 6 -4 7 -1 1 8 -13 21 -14 120 -1 112 6 -4 7 -1 1 8
-14 23 -16 51 -2 43 8 -5 8 -3 2 7 -13 21 -13 561 0 578 8 11 8 13 -1 8 -6 -4
-14 -3 -18 3 -3 5 -1 10 5 10 7 0 6 5 -2 14 -7 8 -15 10 -18 6 -6 -9 -95 -4
-111 6 -7 4 -9 3 -5 -4 5 -9 -28 -10 -95 -3 -10 1 -16 70 -8 83 5 7 3 18 -3
25 -7 9 -7 13 0 13 11 0 11 18 -1 37 -4 6 -3 14 2 17 5 3 6 21 1 40 -4 19 -5
37 -2 40 11 12 -15 5 -27 -6 -11 -11 -12 -10 -6 1 6 11 3 13 -13 9 -12 -4 -25
-2 -28 3 -3 6 -11 6 -19 -1 -8 -7 -19 -9 -24 -6 -5 4 -13 2 -16 -4 -5 -8 -11
-7 -21 1 -8 6 -14 8 -14 3 0 -4 -5 -3 -12 4 -8 8 -15 9 -25 1 -15 -13 -47 6
-37 22 3 5 -1 9 -8 9 -10 0 -9 3 2 10 8 5 11 12 7 16 -4 4 -2 13 3 20 8 8 6
17 -5 28 -10 10 -12 16 -5 16 7 0 10 6 7 14 -3 7 -1 18 4 23 7 7 5 16 -6 27
-9 9 -12 16 -7 16 6 0 9 17 7 38 -2 28 -6 36 -19 34 -9 -2 -16 3 -16 10 0 9
-3 9 -10 -2 -9 -13 -11 -13 -20 0 -5 9 -10 10 -10 3 0 -6 -8 -10 -17 -8 -10 1
-26 -2 -35 -7 -12 -5 -18 -5 -18 2 0 6 -13 8 -31 5 -21 -4 -28 -2 -24 6 6 8 2
8 -14 0 -12 -7 -26 -9 -31 -6 -6 3 -10 0 -10 -7 0 -9 -2 -10 -8 -2 -4 7 -20
12 -37 12 -16 0 -42 2 -57 5 -16 2 -28 1 -28 -2 0 -9 -43 -7 -57 2 -7 4 -15 3
-18 -3 -5 -8 -11 -8 -20 0 -10 8 -19 8 -35 0 -16 -8 -25 -9 -33 -1 -6 6 -16 7
-28 1 -11 -7 -20 -7 -24 0 -4 6 -13 7 -24 1 -9 -5 -23 -6 -30 -2 -7 5 -30 5
-51 1 -21 -4 -45 -3 -54 2 -10 5 -24 5 -37 -2 -14 -8 -24 -8 -32 -1 -8 6 -18
6 -27 1 -9 -5 -19 -5 -27 1 -8 7 -18 7 -32 -1 -15 -7 -21 -7 -21 0 0 7 -6 7
-21 0 -14 -8 -24 -8 -32 -1 -8 6 -18 6 -27 1 -9 -5 -19 -5 -27 1 -8 7 -19 7
-33 -1 -14 -8 -25 -8 -33 -1 -8 6 -18 6 -27 1 -9 -5 -19 -5 -27 1 -8 7 -19 7
-33 -1 -14 -8 -25 -8 -33 -1 -8 6 -18 6 -27 1 -9 -5 -19 -5 -27 1 -8 7 -19 7
-33 -1 -14 -8 -25 -8 -33 -1 -8 6 -18 6 -27 1 -9 -5 -19 -5 -27 2 -9 7 -13 7
-13 -2 0 -9 -4 -9 -13 -2 -8 7 -18 7 -27 2 -9 -5 -19 -5 -27 1 -8 7 -19 7 -33
-1 -14 -8 -25 -8 -33 -1 -8 6 -18 6 -27 1 -9 -5 -19 -5 -27 1 -8 7 -19 7 -33
-1 -16 -8 -25 -9 -33 -1 -6 6 -16 7 -28 1 -11 -7 -20 -7 -24 0 -4 7 -12 7 -25
0 -10 -6 -21 -6 -24 -1 -3 4 -24 5 -46 1 -22 -4 -43 -4 -45 1 -3 4 -15 6 -27
4 -12 -3 -28 1 -37 8 -11 9 -13 9 -8 0 4 -6 3 -14 -2 -17 -5 -3 -12 2 -15 11
-5 12 -10 13 -18 5 -8 -8 -17 -8 -30 -1 -10 5 -17 6 -16 2 2 -4 -1 -8 -7 -8
-5 0 -9 4 -7 9 2 5 -3 4 -11 -2 -10 -9 -17 -9 -27 1 -10 10 -11 9 -5 -1 6 -11
0 -13 -28 -9 -19 2 -41 0 -48 -7 -9 -8 -10 -8 -5 1 7 13 -40 13 -61 0 -6 -4
-14 -3 -18 2 -3 6 -13 7 -22 4 -12 -5 -14 -3 -8 7 6 10 4 11 -6 4 -8 -5 -21
-9 -29 -9 -8 0 -21 -4 -29 -9 -9 -6 -12 -5 -8 1 4 6 -6 10 -24 11 -20 0 -27
-3 -23 -11 5 -9 4 -9 -6 0 -7 6 -19 9 -28 6 -11 -5 -13 -3 -7 7 6 10 4 11 -6
4 -8 -5 -21 -9 -29 -9 -8 0 -21 -4 -29 -9 -10 -6 -12 -5 -7 2 5 8 -3 11 -26 8
-18 -2 -39 1 -47 7 -11 9 -13 9 -8 0 4 -6 3 -14 -2 -17 -5 -3 -12 2 -15 11 -5
12 -10 13 -18 5 -8 -8 -17 -8 -30 -1 -10 5 -17 6 -16 2 2 -4 -1 -8 -7 -8 -5 0
-9 5 -7 10 2 6 -2 4 -9 -2 -10 -10 -16 -10 -28 0 -12 10 -13 9 -7 -1 7 -11 1
-13 -27 -9 -19 2 -41 0 -48 -7 -9 -8 -10 -8 -5 1 7 13 -40 13 -61 0 -6 -4 -14
-3 -18 2 -3 6 -13 7 -22 4 -12 -5 -14 -3 -8 7 6 10 4 11 -6 4 -8 -5 -21 -9
-29 -9 -8 0 -21 -4 -29 -9 -9 -6 -12 -5 -7 2 4 7 -3 10 -21 8 -16 -1 -36 1
-46 6 -10 5 -16 5 -15 -1 2 -5 -1 -9 -7 -9 -5 0 -9 5 -7 12 2 7 0 7 -9 -1 -10
-10 -16 -10 -28 0 -12 9 -13 9 -7 0 6 -11 -9 -18 -35 -15 -3 1 -6 -5 -6 -13 0
-8 4 -12 9 -9 4 3 8 0 8 -5 0 -6 -5 -11 -12 -11 -6 0 -3 -10 8 -22 10 -12 13
-18 7 -14 -7 4 -13 2 -13 -4 0 -6 -5 -8 -12 -4 -7 4 -8 3 -4 -5 4 -6 11 -9 15
-7 4 3 8 -1 8 -9 0 -8 -4 -15 -9 -15 -5 0 -6 -4 -3 -10 10 -16 13 -90 4 -84
-13 8 -11 -10 3 -24 15 -15 21 -14 -99 -16 -70 -2 -100 1 -96 8 4 6 -4 2 -17
-9 -13 -11 -20 -14 -16 -7 7 11 4 12 -11 3 -11 -6 -24 -7 -28 -3 -5 4 -5 1 0
-7 13 -22 17 -84 5 -76 -6 3 -7 0 -4 -9 3 -9 11 -13 18 -9 6 3 2 -4 -9 -17
-11 -13 -14 -20 -7 -16 8 5 12 0 12 -14 0 -13 -4 -19 -12 -14 -7 5 -8 3 -3 -6
12 -19 17 -83 7 -76 -5 3 -9 -1 -9 -9 0 -8 4 -12 9 -9 4 3 5 -2 2 -10 -7 -19
-14 -19 -48 -6 -18 7 -26 6 -26 -1 0 -8 -4 -8 -13 -1 -7 6 -18 8 -24 4 -13 -8
-88 -6 -102 2 -14 9 -19 -16 -16 -87 2 -44 -1 -65 -8 -60 -6 3 -7 1 -3 -5 12
-21 16 -123 4 -116 -7 4 -8 2 -4 -4 12 -21 16 -123 4 -116 -7 4 -8 2 -4 -4 12
-21 16 -123 4 -116 -7 4 -8 2 -4 -4 12 -21 16 -123 4 -116 -7 4 -8 2 -4 -4 12
-21 16 -123 4 -116 -7 4 -8 2 -4 -4 11 -18 16 -123 5 -117 -5 4 -6 -3 -1 -17
5 -13 7 -38 5 -55 -2 -21 2 -33 10 -33 8 0 7 -3 -3 -10 -8 -5 -11 -12 -7 -16
4 -4 2 -13 -3 -20 -8 -8 -6 -17 5 -28 9 -9 12 -16 7 -16 -5 0 -9 -16 -10 -35
-1 -22 3 -35 11 -35 8 0 7 -4 -3 -10 -8 -5 -11 -12 -7 -16 4 -4 2 -13 -3 -20
-8 -8 -6 -17 5 -28 10 -10 12 -16 5 -16 -7 0 -10 -6 -7 -14 3 -7 1 -18 -4 -23
-7 -7 -5 -16 6 -27 9 -9 12 -16 6 -16 -6 0 -10 -55 -10 -151 0 -83 -2 -154 -5
-157 -3 -3 -1 -11 5 -19 7 -8 8 -13 1 -13 -6 0 -7 -13 -2 -34 4 -19 4 -40 -1
-47 -4 -7 -3 -19 3 -26 7 -9 7 -13 0 -13 -6 0 -7 -13 -2 -34 4 -19 4 -40 -1
-47 -4 -7 -3 -19 3 -26 7 -9 7 -13 0 -13 -6 0 -7 -13 -2 -34 4 -19 4 -40 -1
-47 -4 -7 -3 -19 3 -26 7 -9 7 -13 0 -13 -6 0 -7 -13 -2 -34 4 -19 4 -40 -1
-47 -4 -7 -3 -19 3 -26 7 -9 7 -13 0 -13 -6 0 -7 -13 -2 -34 4 -19 4 -40 -1
-47 -4 -7 -3 -19 3 -26 7 -9 7 -13 0 -13 -6 0 -7 -13 -2 -34 4 -19 4 -40 -1
-47 -4 -7 -3 -19 3 -26 7 -9 7 -13 0 -13 -6 0 -7 -13 -2 -34 4 -19 4 -40 -1
-47 -4 -7 -3 -19 3 -26 7 -9 7 -13 0 -13 -6 0 -7 -13 -2 -34 4 -19 4 -40 -1
-47 -4 -7 -3 -19 3 -26 6 -7 7 -13 2 -13 -5 0 -9 -20 -9 -45 0 -36 4 -46 23
-55 15 -6 21 -7 17 0 -4 7 2 7 19 0 17 -6 27 -6 32 1 4 8 9 8 17 0 7 -7 14 -7
24 0 9 8 17 8 26 1 8 -7 18 -7 27 -2 8 5 21 5 31 0 9 -5 18 -8 20 -5 2 2 5
-12 6 -31 1 -23 -2 -32 -9 -28 -7 5 -8 2 -3 -6 4 -7 10 -29 12 -47 3 -26 0
-33 -9 -27 -10 6 -10 5 -2 -7 6 -8 11 -31 10 -53 -2 -26 4 -46 17 -60 10 -11
16 -15 12 -8 -7 13 21 12 44 -2 10 -6 12 -5 7 2 -5 8 1 12 14 12 14 0 19 -4
14 -12 -4 -7 3 -4 16 7 13 11 20 15 17 9 -4 -7 0 -15 9 -18 8 -3 12 -2 9 4 -3
6 3 10 15 10 14 0 19 -4 14 -12 -4 -7 1 -6 12 3 13 12 26 14 41 8 19 -7 21
-12 13 -38 -6 -22 -5 -31 3 -32 9 0 8 -2 0 -6 -17 -6 -17 -33 0 -34 9 0 9 -2
0 -6 -10 -3 -10 -10 -2 -25 8 -15 8 -19 0 -14 -6 4 -11 2 -11 -3 0 -6 6 -11
13 -11 8 0 7 -4 -3 -10 -13 -9 -13 -10 0 -10 13 0 13 -1 0 -10 -10 -6 -11 -10
-2 -10 6 0 12 -5 12 -11 0 -5 -4 -8 -9 -5 -5 4 -8 -2 -6 -11 2 -10 4 -22 4
-27 1 -5 9 -2 18 5 11 10 14 10 9 1 -5 -8 0 -12 18 -12 14 0 28 5 31 10 4 7
11 7 18 2 15 -11 107 -9 126 2 9 6 12 5 8 -1 -4 -6 2 -13 13 -16 11 -3 18 -1
15 4 -7 10 46 6 65 -6 8 -5 11 -4 7 2 -4 6 0 14 9 17 8 3 13 2 10 -3 -3 -4 21
-7 52 -6 31 1 63 -3 71 -9 11 -8 13 -8 7 2 -4 7 -1 12 8 12 9 0 16 -6 16 -12
0 -9 3 -9 8 -3 4 6 14 10 22 10 8 -1 21 4 29 9 11 8 13 8 8 -1 -5 -8 1 -11 20
-9 16 1 34 -2 42 -8 11 -8 13 -8 7 2 -4 7 -1 12 8 12 9 0 16 -6 16 -12 0 -9 3
-9 8 -3 4 6 14 10 22 10 8 -1 21 4 29 9 11 8 13 8 7 -1 -5 -9 2 -12 26 -9 18
2 38 0 45 -5 7 -7 14 -6 18 1 3 5 11 10 16 10 6 0 8 -4 5 -9 -4 -5 3 -7 14 -4
11 3 17 10 13 16 -4 6 -1 7 8 1 13 -8 48 -15 74 -14 6 0 70 1 143 3 72 1 132
-1 132 -6 0 -4 -5 -5 -12 -1 -7 5 -8 3 -3 -6 6 -10 11 -9 21 4 11 16 13 16 23
-1 9 -16 10 -17 11 -1 0 15 4 16 26 8 14 -6 23 -7 21 -2 -3 4 41 7 98 7 57 1
102 -2 100 -5 -7 -11 40 -6 47 5 5 6 8 5 8 -2 0 -7 5 -13 11 -13 5 0 8 3 6 8
-3 4 17 8 44 8 27 1 47 -2 44 -5 -6 -11 39 -7 47 4 5 6 8 4 8 -5 0 -13 1 -13
10 0 9 13 10 13 10 0 0 -13 1 -13 10 0 6 10 10 11 10 3 0 -7 5 -13 11 -13 5 0
8 4 5 9 -4 5 1 8 10 7 8 -1 20 -9 25 -17 7 -11 9 -11 9 3 0 14 5 16 23 9 12
-4 31 -7 41 -5 11 1 29 -4 40 -12 11 -8 16 -14 11 -14 -6 0 -3 -5 5 -10 11 -7
11 -10 2 -10 -7 0 -11 -4 -7 -9 3 -5 1 -13 -5 -16 -8 -5 -7 -11 1 -21 6 -8 8
-14 5 -14 -4 0 -1 -10 5 -22 11 -21 11 -22 -5 -9 -15 13 -16 12 -8 -10 5 -13
7 -30 4 -38 -3 -10 0 -11 9 -5 12 7 12 5 0 -9 -7 -9 -10 -17 -5 -17 5 0 2 -5
-6 -10 -11 -7 -12 -10 -2 -10 15 0 12 -21 -3 -22 -6 0 -18 -4 -27 -9 -11 -6
-18 -6 -18 -1 0 10 -48 8 -57 -2 -3 -3 -14 -1 -24 4 -12 7 -20 7 -24 0 -4 -6
-11 -7 -18 -3 -16 10 -57 10 -57 0 0 -4 -9 -3 -19 3 -14 7 -22 7 -26 0 -4 -6
-11 -7 -18 -3 -16 10 -57 10 -57 0 0 -4 -9 -3 -19 3 -14 7 -22 7 -26 0 -4 -6
-11 -7 -18 -3 -16 10 -57 10 -57 0 0 -4 -10 -2 -22 4 -13 7 -25 11 -28 10 -3
-2 -13 -7 -22 -12 -12 -7 -18 -6 -18 1 0 8 -6 8 -20 0 -14 -8 -20 -8 -20 0 0
8 -6 8 -20 0 -14 -8 -20 -8 -20 0 0 8 -6 8 -20 0 -14 -8 -20 -8 -20 0 0 8 -6
8 -20 0 -14 -8 -20 -8 -20 0 0 8 -6 8 -20 0 -14 -8 -20 -8 -20 0 0 8 -6 8 -20
0 -14 -8 -20 -8 -20 0 0 8 -6 8 -20 0 -14 -8 -20 -8 -20 0 0 8 -6 8 -20 0 -14
-8 -20 -8 -20 0 0 8 -6 8 -20 0 -14 -8 -20 -8 -20 0 0 8 -6 8 -20 0 -14 -8
-20 -8 -20 0 0 8 -6 8 -20 0 -14 -8 -20 -8 -20 0 0 8 -6 8 -20 0 -14 -8 -20
-8 -20 0 0 8 -6 8 -20 0 -14 -8 -20 -8 -20 0 0 8 -6 8 -20 0 -14 -8 -20 -8
-20 0 0 8 -6 8 -20 0 -11 -6 -26 -8 -32 -4 -17 11 -58 11 -58 1 0 -4 -9 -3
-19 3 -14 7 -22 7 -26 0 -4 -6 -11 -7 -18 -3 -16 10 -57 10 -57 0 0 -4 -9 -3
-19 3 -14 7 -22 7 -26 0 -4 -6 -11 -7 -18 -3 -16 10 -57 10 -57 0 0 -4 -9 -3
-19 3 -14 7 -22 7 -26 0 -4 -6 -11 -7 -18 -3 -16 10 -57 10 -57 0 0 -4 -9 -3
-19 3 -14 7 -22 7 -26 0 -4 -6 -11 -7 -18 -3 -16 10 -57 10 -57 0 0 -4 -9 -3
-19 3 -14 7 -22 7 -26 0 -4 -6 -11 -7 -18 -3 -16 10 -57 10 -57 0 0 -4 -9 -3
-19 3 -14 7 -22 7 -26 0 -4 -6 -11 -7 -18 -3 -16 10 -57 10 -57 0 0 -4 -9 -3
-19 3 -14 7 -22 7 -26 0 -4 -6 -11 -7 -18 -3 -16 10 -57 10 -57 0 0 -4 -9 -3
-19 3 -14 7 -22 7 -26 0 -4 -6 -11 -7 -18 -3 -16 10 -57 10 -57 0 0 -4 -9 -3
-19 3 -14 7 -22 7 -27 -1 -4 -8 -9 -8 -17 0 -7 7 -14 7 -23 0 -8 -7 -14 -7
-19 1 -5 8 -10 8 -20 0 -9 -8 -15 -8 -20 0 -4 7 -12 7 -26 0 -13 -8 -19 -7
-19 0 0 6 -4 9 -9 6 -5 -3 -15 2 -22 11 -11 13 -11 17 -1 20 6 3 9 9 6 14 -11
19 -11 169 0 170 8 0 7 2 0 5 -6 3 -9 16 -6 31 3 18 1 24 -7 19 -6 -4 -11 -3
-11 3 0 7 -8 7 -24 1 -13 -5 -26 -6 -29 -4 -10 10 -42 11 -60 2 -9 -5 -23 -5
-30 -1 -6 4 -28 8 -47 8 -33 0 -35 2 -36 32 0 18 -3 36 -7 39 -4 4 1 16 10 27
10 11 13 18 7 14 -13 -7 -13 80 -1 100 6 9 3 11 -10 6 -16 -6 -16 -5 -4 10 7
9 10 17 5 17 -5 0 -2 5 6 10 9 6 10 10 3 10 -8 0 -11 13 -8 40 2 22 -1 42 -6
46 -6 4 -3 14 8 27 10 11 12 17 6 13 -9 -5 -13 0 -13 14 0 12 4 18 10 15 6 -3
7 1 4 9 -3 9 -11 13 -18 9 -6 -3 -2 4 9 17 11 13 14 20 8 16 -9 -5 -13 0 -13
14 0 14 4 19 13 14 9 -6 9 -4 1 7 -6 8 -11 38 -10 67 0 30 -3 56 -7 59 -5 3 0
14 10 26 10 11 13 18 7 14 -7 -4 -10 18 -10 69 1 42 -2 81 -6 87 -4 6 1 20 10
31 9 11 11 16 5 12 -9 -5 -13 0 -13 14 0 12 4 18 10 15 6 -3 7 1 4 9 -3 9 -11
13 -18 9 -6 -3 -2 4 9 17 11 13 14 20 8 16 -9 -5 -13 0 -13 14 0 12 4 18 10
15 6 -3 7 1 4 9 -3 9 -11 13 -18 9 -6 -3 -2 4 9 17 11 13 14 20 8 16 -9 -5
-13 0 -13 14 0 12 4 18 10 15 6 -3 7 1 4 9 -3 9 -11 13 -18 9 -6 -3 -2 4 9 17
11 13 14 20 8 16 -9 -5 -13 0 -13 14 0 14 4 19 13 14 9 -6 9 -4 1 7 -6 8 -11
38 -10 67 0 30 -3 56 -7 59 -5 3 0 14 10 26 10 11 13 18 7 14 -7 -4 -10 18
-10 69 1 42 -2 81 -6 87 -4 6 1 20 10 31 9 11 11 16 5 12 -9 -5 -13 0 -13 14
0 12 4 18 10 15 6 -3 7 1 4 9 -3 9 -11 13 -18 9 -6 -3 -2 4 9 17 11 13 14 20
8 16 -9 -5 -13 0 -13 14 0 14 4 19 13 14 9 -6 9 -4 1 7 -6 8 -11 38 -10 67 0
30 -3 56 -7 59 -5 3 0 14 10 26 10 11 13 18 8 14 -8 -4 -11 39 -10 135 0 77
-4 142 -8 145 -5 3 0 14 10 26 10 11 13 18 7 14 -7 -4 -10 27 -10 95 1 55 -3
102 -7 105 -5 3 0 14 10 26 10 11 13 18 7 14 -13 -7 -13 80 -1 100 6 9 3 11
-10 6 -16 -6 -16 -5 -4 10 7 9 10 17 5 17 -5 0 -2 5 6 10 9 6 10 10 3 10 -8 0
-11 13 -8 40 2 22 -1 42 -6 46 -6 4 -3 14 8 27 10 11 12 17 6 13 -9 -5 -13 0
-13 14 0 12 4 18 10 15 6 -3 7 1 4 9 -3 9 -11 13 -18 9 -6 -3 -2 4 9 17 11 13
14 20 8 16 -9 -5 -13 0 -13 14 0 14 4 19 13 14 9 -6 9 -4 1 7 -6 8 -11 38 -10
67 0 30 -3 56 -7 59 -5 3 0 14 10 26 10 11 13 18 7 14 -7 -4 -10 18 -10 69 1
42 -2 81 -6 87 -4 6 1 20 10 31 9 11 11 16 5 12 -9 -5 -13 0 -13 14 0 12 4 18
10 15 6 -3 7 1 4 9 -3 9 -11 13 -18 9 -6 -3 -2 4 9 17 11 13 14 20 8 16 -9 -5
-13 0 -13 14 0 12 4 19 8 16 5 -3 9 1 9 9 0 8 -5 11 -10 8 -6 -4 -8 0 -4 10 3
9 2 19 -4 23 -6 4 -3 14 8 27 10 11 13 18 7 14 -13 -7 -13 80 -1 100 6 9 3 11
-10 6 -16 -6 -16 -5 -4 10 7 9 10 17 5 17 -5 0 -2 5 6 10 8 5 10 10 4 10 -6 0
-10 37 -10 101 1 55 -3 103 -7 106 -5 3 0 14 10 26 10 11 12 17 6 13 -9 -5
-13 -1 -13 11 0 25 16 48 24 35 4 -7 17 -7 36 -2 17 5 30 5 30 2 0 -10 62 -8
79 2 7 5 17 4 23 -2 7 -7 19 -7 33 -2 13 5 26 6 30 2 4 -4 2 4 -5 17 -10 19
-10 22 1 16 8 -6 11 -4 7 6 -22 52 -22 52 -7 44 12 -7 12 -6 1 7 -8 10 -9 17
-3 20 6 1 8 13 5 25 -4 13 -11 20 -18 17 -6 -3 -2 2 8 10 15 12 16 16 5 16
-11 0 -12 2 0 9 10 7 11 13 2 30 -7 13 -8 21 -2 21 6 0 8 6 5 14 -6 16 12 16
35 1 10 -6 18 -3 25 8 7 10 13 12 17 5 4 -6 13 -8 20 -6z m1904 -542 c5 8 10
8 20 0 9 -8 15 -8 20 0 3 6 12 7 18 3 14 -9 49 -9 62 -1 6 3 21 0 35 -8 14 -7
21 -13 17 -14 -4 0 -3 -10 4 -21 8 -16 8 -20 0 -14 -8 5 -11 -7 -8 -39 3 -29
1 -46 -6 -46 -6 0 -3 -6 8 -13 13 -10 15 -16 6 -21 -6 -4 -9 -11 -6 -16 3 -5
0 -12 -5 -15 -8 -5 -5 -14 7 -28 10 -11 12 -17 4 -12 -11 6 -13 3 -9 -11 4
-17 -1 -19 -41 -20 -25 0 -49 4 -53 10 -5 8 -8 7 -8 -1 0 -12 -30 -10 -50 2
-6 4 -9 3 -8 -2 2 -4 -1 -8 -7 -8 -5 0 -9 4 -7 9 2 5 -3 5 -10 0 -7 -6 -19 -9
-25 -8 -7 1 -18 2 -24 3 -5 0 -7 6 -4 11 3 6 1 10 -5 10 -8 0 -7 6 1 21 8 16
8 20 -1 14 -9 -5 -10 -2 -3 11 10 23 10 55 0 72 -5 6 -5 18 0 25 10 16 10 39
0 54 -4 6 -3 14 3 18 8 5 7 11 -2 23 -7 9 -8 13 -3 10 6 -3 19 -2 30 2 11 4
25 3 32 -2 7 -6 14 -5 18 2z m761 -5 c13 -1 27 2 30 7 3 5 11 4 19 -2 8 -7 15
-7 19 -1 3 5 15 7 26 4 25 -7 45 -39 30 -48 -8 -5 -7 -11 1 -21 6 -8 8 -14 3
-14 -5 0 -2 -5 6 -10 11 -7 11 -10 2 -10 -7 0 -11 -4 -7 -9 3 -5 1 -13 -5 -16
-8 -5 -7 -11 1 -21 9 -11 8 -14 -2 -14 -9 0 -10 -3 -3 -8 15 -10 27 -45 12
-36 -8 5 -9 2 -5 -9 3 -9 2 -19 -4 -23 -6 -4 -6 -11 2 -20 6 -8 8 -14 3 -15
-5 0 -20 -2 -34 -4 -14 -1 -31 3 -39 9 -11 8 -13 8 -8 -1 4 -6 3 -14 -2 -17
-5 -3 -12 1 -15 10 -5 13 -9 14 -21 4 -12 -10 -18 -10 -32 1 -10 8 -14 9 -10
2 4 -6 3 -14 -2 -17 -5 -3 -12 2 -15 11 -5 12 -10 13 -18 5 -12 -12 -38 -5
-38 10 0 5 6 6 13 2 9 -6 9 -4 1 7 -5 8 -9 25 -8 39 1 14 -3 36 -8 49 -8 21
-7 22 7 11 14 -11 15 -10 7 11 -10 29 -8 91 3 109 6 9 4 11 -5 5 -8 -5 -11 -3
-8 6 3 8 17 14 31 14 15 -1 27 3 27 8 0 4 5 5 11 2 5 -4 21 -8 35 -10z m-2221
-275 c4 -7 12 -7 25 0 13 7 21 7 25 0 4 -7 12 -7 25 0 10 6 21 6 24 1 3 -4 17
-6 32 -3 16 3 29 -1 35 -9 12 -19 11 -42 -1 -34 -15 9 -12 -2 6 -19 8 -9 11
-16 6 -16 -13 0 -12 -90 2 -90 6 0 3 -5 -7 -11 -10 -6 -14 -15 -10 -22 12 -19
12 -38 0 -30 -7 4 -8 0 -4 -11 4 -9 3 -15 -3 -11 -16 10 -90 13 -90 3 0 -5 -9
-4 -20 2 -11 6 -20 7 -20 2 0 -5 -7 -9 -15 -9 -8 0 -12 4 -9 8 2 4 0 11 -6 14
-6 4 -9 1 -8 -7 3 -15 -32 -12 -47 4 -7 8 -5 8 5 3 13 -8 13 -7 1 8 -11 14
-11 20 0 34 9 10 9 14 2 10 -9 -6 -11 5 -7 44 4 40 2 49 -8 43 -10 -6 -10 -4
-2 7 6 8 10 29 8 47 -1 29 5 37 29 33 4 0 7 4 7 9 0 13 17 13 25 0z m3005
-263 c0 13 18 12 39 -1 10 -7 12 -5 6 3 -6 10 -3 11 15 1 13 -7 19 -15 14 -19
-12 -8 -12 -27 0 -38 5 -5 6 -2 1 6 -6 10 -4 12 5 6 10 -6 9 -11 -5 -22 -14
-9 -15 -13 -4 -13 11 0 12 -2 0 -9 -10 -6 -11 -13 -2 -29 14 -27 14 -35 -1
-26 -10 5 -10 4 -1 -6 10 -11 9 -16 -5 -27 -9 -8 -11 -12 -4 -8 6 3 12 0 13
-7 0 -7 2 -21 4 -30 2 -9 -3 -22 -11 -29 -8 -6 -14 -8 -14 -4 0 4 -8 1 -17 -6
-14 -12 -16 -12 -9 0 6 9 5 12 -5 9 -8 -3 -22 -1 -33 4 -12 7 -16 7 -12 0 4
-7 -4 -10 -21 -8 -16 1 -34 -2 -42 -8 -11 -8 -13 -8 -7 2 5 9 -2 11 -29 7 -21
-2 -33 0 -30 5 4 6 2 10 -3 10 -5 0 -12 9 -15 21 -5 17 -3 18 11 7 11 -9 14
-9 8 -1 -11 19 -16 124 -5 118 14 -9 11 2 -7 19 -10 10 -11 16 -4 16 7 0 10 6
7 13 -6 17 10 57 23 57 6 0 8 -5 4 -12 -5 -7 -3 -8 7 -2 18 11 51 12 65 2 7
-5 17 -2 25 8 12 14 14 14 26 -2 7 -10 13 -13 13 -7z m-2885 3 c3 -6 -1 -7 -9
-4 -18 7 -21 14 -7 14 6 0 13 -4 16 -10z m836 -529 c7 11 9 11 9 -1 0 -12 2
-12 9 -1 6 10 13 10 28 2 11 -5 23 -8 26 -5 9 9 66 11 61 2 -3 -4 0 -8 5 -8 6
0 11 6 12 13 0 9 2 9 6 -1 2 -6 8 -10 12 -8 4 3 8 -8 8 -24 0 -17 -4 -30 -9
-30 -5 0 -6 -5 -2 -12 12 -19 12 -112 0 -127 -8 -11 -8 -13 0 -8 7 4 10 -6 10
-27 -1 -19 -4 -32 -8 -30 -4 2 -9 0 -13 -6 -4 -6 -12 -7 -18 -3 -16 11 -29 11
-49 1 -10 -5 -19 -4 -23 2 -4 6 -11 7 -17 4 -17 -11 -85 -10 -94 1 -14 17 -15
35 -1 35 6 0 4 5 -6 11 -14 8 -16 14 -6 25 6 8 8 14 4 14 -4 0 -2 6 4 14 7 9
8 17 2 20 -10 7 -10 24 2 43 4 6 2 15 -4 19 -8 5 -9 3 -4 -6 5 -9 4 -11 -4 -6
-8 5 -9 12 -3 19 5 7 8 22 6 35 -2 13 0 21 5 18 5 -3 7 3 4 15 -5 19 -4 20 17
9 18 -10 24 -9 31 1z m-2951 -268 c0 4 9 3 19 -3 12 -6 22 -6 25 -1 3 5 21 5
41 1 19 -4 35 -4 35 1 0 5 10 5 23 0 13 -5 30 -5 37 -1 9 5 20 5 27 -1 7 -6
18 -7 25 -3 10 5 10 4 2 -5 -7 -8 -9 -25 -4 -47 5 -20 4 -34 -2 -34 -5 0 -6
-6 -1 -12 10 -17 10 -78 0 -78 -5 0 -5 -5 -1 -11 11 -18 11 -53 -1 -61 -6 -5
-3 -8 8 -8 9 0 17 -5 17 -12 0 -9 3 -9 12 0 9 9 15 9 27 -1 12 -9 13 -9 7 1
-4 6 -2 12 3 12 6 0 12 -8 12 -17 1 -17 2 -17 6 -1 4 14 8 16 24 8 14 -8 19
-7 20 2 0 10 2 10 6 -1 5 -11 7 -11 14 0 6 10 9 11 9 2 0 -7 5 -13 11 -13 5 0
7 5 3 11 -4 8 -1 8 12 2 11 -5 28 -9 40 -8 17 2 21 -4 22 -27 0 -18 -3 -26
-10 -22 -7 5 -8 2 -2 -7 13 -21 14 -120 1 -112 -6 4 -7 1 -1 -8 14 -24 16 -51
2 -43 -9 6 -9 3 0 -9 8 -9 10 -21 6 -28 -5 -8 2 -10 25 -7 17 2 31 1 31 -2 0
-4 12 -5 28 -3 55 8 77 8 89 0 6 -4 14 -3 18 3 4 7 11 8 18 1 12 -9 18 -11 37
-11 7 0 8 -6 2 -17 -6 -9 -6 -29 -2 -45 6 -18 5 -28 -2 -28 -7 0 -6 -5 1 -14
8 -10 9 -16 1 -21 -7 -4 -7 -12 0 -26 8 -14 7 -19 -2 -19 -9 0 -9 -3 0 -12 8
-8 8 -17 1 -30 -8 -15 -6 -23 12 -39 24 -20 34 -25 25 -10 -8 12 94 9 113 -3
10 -6 12 -5 7 2 -5 8 0 12 13 12 12 0 21 -6 21 -12 0 -9 4 -8 10 2 5 8 10 11
10 6 0 -5 8 -2 17 5 9 8 14 9 11 4 -4 -6 -3 -17 2 -25 5 -9 4 -20 -3 -29 -9
-12 -9 -13 1 -7 7 4 12 1 12 -8 0 -9 -6 -16 -12 -16 -8 0 -9 -3 -3 -8 13 -9
17 -62 4 -62 -6 0 -6 -7 -2 -17 5 -10 8 -38 8 -63 l0 -45 -83 0 c-45 0 -82 -4
-82 -8 0 -4 -9 -3 -19 3 -11 5 -22 7 -24 3 -3 -5 -48 -6 -101 -3 -53 3 -96 1
-96 -3 0 -5 -5 -5 -11 -1 -7 4 -24 7 -39 6 -25 -1 -28 4 -32 34 -2 19 -1 40 3
46 5 7 3 18 -3 25 -7 9 -7 13 0 13 6 0 7 13 2 34 -4 18 -3 41 2 50 6 11 5 16
-4 16 -9 0 -9 3 -1 11 8 8 8 18 2 33 -9 20 -15 21 -100 16 -50 -3 -93 -2 -96
3 -2 4 -13 2 -24 -3 -16 -9 -19 -7 -20 12 0 13 -2 38 -3 56 -2 17 1 32 6 32 5
0 6 5 3 10 -4 6 -12 7 -18 3 -9 -5 -9 -3 -1 8 6 8 11 43 10 78 -1 53 -4 65
-18 67 -10 1 -18 -3 -18 -9 0 -7 -5 -4 -11 6 -7 12 -14 15 -22 8 -15 -12 -27
-12 -51 1 -12 7 -16 7 -12 0 3 -5 -1 -13 -10 -16 -8 -3 -12 -2 -9 4 3 5 -4 8
-15 7 -11 -1 -20 -6 -20 -12 0 -5 -4 -4 -9 3 -4 7 -12 12 -17 11 -5 -1 -16 -1
-24 0 -13 1 -13 2 0 11 9 6 11 10 3 10 -7 0 -10 7 -6 16 3 9 0 20 -8 25 -8 5
-9 9 -3 9 13 0 13 48 0 69 -7 10 -6 12 4 6 10 -6 12 -3 8 13 -4 12 -1 25 4 28
7 4 4 10 -6 16 -9 5 -13 14 -9 21 14 22 11 35 -8 40 -10 3 -17 2 -15 -2 6 -9
-147 -7 -162 3 -7 4 -12 3 -12 -2 0 -14 -36 -3 -38 11 0 7 -3 22 -6 35 -3 13
-1 20 5 16 9 -5 6 23 -7 64 -2 6 4 12 14 12 15 1 15 2 -2 11 -15 9 -16 13 -5
20 12 7 11 9 -1 9 -13 0 -13 1 0 10 8 5 10 10 4 10 -8 0 -9 11 -5 33 5 24 12
32 29 33 13 1 24 3 26 5 3 2 47 2 100 -1 53 -3 96 -1 96 3z m2536 -276 c8 3
14 -1 14 -8 0 -11 3 -11 10 1 5 8 10 11 10 6 0 -5 6 -3 14 3 11 9 16 9 22 0 5
-8 3 -9 -6 -4 -9 5 -11 4 -6 -4 6 -9 11 -9 21 -1 8 7 18 9 23 6 14 -9 21 -56
9 -63 -6 -4 -3 -12 8 -20 16 -11 17 -13 3 -13 -22 0 -32 -16 -17 -26 8 -5 9
-3 4 7 -5 8 -4 11 0 6 12 -10 17 -50 7 -43 -5 3 -9 -1 -9 -9 0 -8 3 -13 6 -11
3 2 6 -14 6 -35 0 -21 -3 -39 -8 -39 -4 0 -5 -6 -1 -12 5 -8 0 -7 -11 2 -11 9
-16 10 -11 3 4 -8 2 -13 -6 -13 -8 0 -20 6 -27 13 -10 8 -12 8 -7 0 3 -6 2
-14 -3 -17 -5 -3 -12 1 -15 10 -5 13 -9 14 -21 4 -12 -10 -18 -10 -32 1 -10 8
-14 9 -10 2 4 -6 3 -14 -2 -17 -5 -3 -12 1 -15 10 -5 12 -9 14 -20 5 -8 -7
-22 -8 -36 -3 -16 6 -19 11 -12 16 15 9 16 26 1 26 -5 0 -7 -5 -3 -12 4 -7 3
-8 -5 -4 -6 4 -8 13 -4 19 11 17 11 29 0 51 -6 13 -6 16 2 12 7 -5 10 3 7 23
-2 18 1 31 8 31 6 0 5 4 -3 9 -9 6 -11 15 -6 27 13 29 14 45 4 38 -5 -3 -6
-10 -3 -16 4 -7 2 -8 -4 -4 -9 5 -9 12 0 25 8 14 21 17 55 15 33 -3 42 -1 37
9 -5 9 -4 9 6 0 7 -6 19 -9 26 -6z m-793 -536 c5 -1 5 -7 2 -13 -4 -7 1 -4 9
6 12 15 16 16 17 5 0 -8 2 -9 5 -4 5 12 71 12 82 0 4 -5 1 -5 -7 0 -10 6 -12
4 -6 -5 7 -11 10 -10 19 1 14 17 61 18 62 1 1 -6 2 -13 4 -14 6 -8 5 -68 -2
-68 -4 0 -4 -10 0 -22 5 -13 7 -34 5 -48 -5 -38 -5 -43 0 -67 4 -13 -1 -27
-11 -35 -12 -10 -14 -10 -8 0 4 7 1 12 -9 12 -9 0 -14 -4 -11 -8 6 -10 -110
-8 -143 3 -15 4 -21 4 -17 -3 7 -11 -12 -11 -31 1 -6 4 -14 2 -16 -3 -3 -6 -4
-5 -3 2 2 7 -1 21 -5 30 -6 10 -5 19 1 23 8 5 7 11 -1 21 -9 11 -9 14 1 14 8
0 9 4 3 13 -5 6 -7 23 -3 37 4 14 3 35 -1 48 -5 14 -5 22 2 22 6 0 7 5 4 10
-12 20 5 47 28 44 12 -1 26 -3 30 -3z m966 -546 c5 -3 12 -1 16 4 6 11 78 7
97 -5 6 -4 8 -3 4 4 -6 10 7 10 57 3 4 0 7 -16 5 -34 -1 -18 1 -38 5 -44 4 -6
-1 -14 -11 -18 -16 -6 -16 -7 2 -21 13 -9 15 -14 6 -14 -9 0 -8 -6 5 -20 14
-15 15 -19 4 -15 -10 4 -15 -1 -15 -15 0 -11 5 -20 11 -20 5 0 3 -5 -5 -10 -9
-6 -10 -10 -3 -10 6 0 11 -9 10 -19 0 -11 -5 -17 -9 -15 -4 3 -8 1 -8 -5 0
-11 -19 -9 -39 3 -10 7 -12 6 -6 -4 6 -10 4 -12 -8 -7 -10 4 -17 1 -17 -6 0
-8 -3 -8 -8 -2 -10 15 -52 16 -52 2 0 -9 -2 -9 -8 -1 -4 7 -18 12 -32 12 -58
0 -63 1 -51 16 9 11 9 16 0 22 -8 5 -9 3 -4 -6 5 -9 4 -11 -4 -6 -9 6 -9 11 0
22 6 8 8 14 4 14 -4 0 -1 8 6 17 9 10 9 14 2 10 -9 -6 -11 3 -8 30 2 21 -2 44
-8 52 -9 11 -9 13 -1 8 7 -4 14 0 18 8 3 8 1 17 -4 20 -6 4 -7 44 -1 62 2 3
41 -6 50 -12z m-704 -265 c5 8 10 8 20 0 7 -6 15 -7 18 -3 4 7 72 9 72 3 0 -1
12 -3 27 -4 14 0 30 -5 35 -10 5 -5 3 -6 -4 -2 -10 5 -12 -4 -9 -39 2 -25 -1
-48 -5 -51 -5 -3 -9 -11 -9 -17 0 -8 3 -7 9 2 6 9 8 -5 7 -40 -1 -30 -6 -61
-10 -68 -7 -10 -5 -12 4 -6 8 5 11 3 8 -6 -3 -9 -20 -14 -46 -14 -23 0 -42 -4
-42 -8 0 -4 -9 -3 -20 3 -11 6 -20 7 -20 2 0 -10 -89 0 -108 12 -10 6 -10 11
-1 22 6 8 8 14 4 14 -4 0 -2 6 4 13 6 8 8 17 4 21 -12 12 -12 36 0 36 7 0 5 5
-3 10 -8 5 -10 10 -5 10 6 0 3 5 -5 10 -8 5 -10 10 -4 10 12 0 12 58 0 80 -5
8 -6 12 -1 8 4 -4 17 -1 28 7 14 10 24 11 33 4 8 -7 14 -7 19 1z m1860 -530
c3 -5 1 -10 -4 -10 -6 0 -11 5 -11 10 0 6 2 10 4 10 3 0 8 -4 11 -10z m585
-554 c0 -6 4 -6 9 3 6 9 10 10 16 2 5 -9 10 -9 21 0 8 6 14 8 14 4 0 -4 6 -2
14 4 11 10 17 8 25 -6 6 -10 11 -13 11 -7 0 11 65 13 76 1 4 -4 13 -2 21 4 7
6 13 8 13 4 0 -4 8 -1 17 6 14 12 16 12 9 0 -6 -9 -5 -12 5 -9 8 3 23 1 33 -5
16 -8 18 -6 13 7 -6 14 -3 15 13 6 15 -8 20 -8 20 2 0 10 2 10 9 0 4 -7 14
-12 22 -10 10 2 14 -6 13 -29 -1 -18 1 -31 5 -29 4 3 7 -4 7 -15 0 -10 -3 -19
-6 -19 -3 0 -6 -11 -6 -25 -1 -14 1 -23 5 -21 3 2 6 -11 6 -29 0 -18 -3 -31
-7 -29 -14 9 -8 -9 10 -30 13 -16 13 -18 1 -8 -14 11 -16 9 -14 -13 2 -14 -1
-23 -6 -19 -15 9 -99 10 -99 0 0 -5 -6 -4 -13 2 -7 6 -18 7 -25 3 -6 -4 -37
-4 -67 -1 -31 3 -55 2 -55 -3 0 -5 -6 -5 -13 1 -7 6 -18 7 -25 3 -6 -4 -37 -4
-67 -1 -30 3 -55 3 -55 -1 0 -4 -13 -2 -30 4 -16 6 -26 14 -21 17 4 3 7 25 6
50 -1 25 3 51 9 59 8 10 8 13 0 8 -13 -7 -13 71 0 92 6 9 5 12 -2 8 -6 -5 -8
0 -5 12 3 14 12 17 34 15 17 -2 28 0 24 5 -3 5 4 7 15 4 11 -3 20 -10 20 -17z"/>
<path d="M3506 2258 c3 -5 10 -6 15 -3 13 9 11 12 -6 12 -8 0 -12 -4 -9 -9z"/>
<path d="M3826 2258 c3 -5 10 -6 15 -3 13 9 11 12 -6 12 -8 0 -12 -4 -9 -9z"/>
<path d="M1953 2151 c0 -11 5 -18 9 -15 4 3 5 11 1 19 -7 21 -12 19 -10 -4z"/>
<path d="M7255 4801 c-3 -5 -2 -12 3 -15 5 -3 9 1 9 9 0 17 -3 19 -12 6z"/>
<path d="M7255 4561 c-3 -5 -2 -12 3 -15 5 -3 9 1 9 9 0 17 -3 19 -12 6z"/>
<path d="M7255 4001 c-3 -5 -2 -12 3 -15 5 -3 9 1 9 9 0 17 -3 19 -12 6z"/>
<path d="M4133 3685 c0 -8 4 -12 9 -9 5 3 6 10 3 15 -9 13 -12 11 -12 -6z"/>
<path d="M5140 3620 c0 -5 -8 -6 -17 -4 -10 2 -23 1 -30 -4 -15 -10 -5 -54 11
-46 6 3 2 -2 -8 -10 -15 -12 -16 -16 -5 -16 11 0 12 -2 0 -9 -10 -6 -11 -13
-2 -29 14 -27 14 -35 -1 -26 -10 6 -10 4 0 -8 8 -10 9 -17 3 -20 -6 -1 -8 -13
-5 -25 4 -13 11 -20 18 -17 6 3 2 -2 -8 -10 -15 -12 -16 -16 -5 -16 9 0 10 -3
3 -8 -6 -4 -10 -14 -9 -22 2 -13 -12 -14 -91 -10 -52 3 -94 2 -94 -2 0 -9 -22
-6 -30 3 -3 3 -14 -3 -25 -14 -11 -11 -15 -17 -9 -14 7 4 14 -2 17 -13 3 -11
1 -20 -3 -20 -10 0 -7 -27 5 -37 4 -4 5 -2 0 6 -6 10 -4 12 5 6 10 -6 10 -10
-3 -20 -13 -9 -14 -14 -4 -25 9 -10 9 -11 0 -6 -7 4 -13 2 -13 -3 0 -6 6 -11
13 -11 8 0 7 -4 -3 -10 -8 -5 -10 -10 -5 -10 6 0 11 -9 11 -20 0 -11 -4 -20
-9 -20 -5 0 -4 -7 3 -15 10 -12 10 -15 -1 -16 -8 0 0 -7 16 -14 23 -10 33 -10
44 -2 12 9 13 9 7 0 -5 -9 2 -12 26 -9 18 2 39 -1 47 -7 11 -9 13 -9 8 0 -4 6
-3 14 2 17 5 3 12 -2 15 -11 5 -12 10 -13 18 -5 8 8 17 8 31 1 12 -7 17 -7 13
-1 -3 5 1 13 10 16 10 4 13 2 8 -6 -5 -8 -2 -9 9 -5 9 3 19 2 23 -4 4 -6 10
-7 17 0 13 10 80 7 99 -5 6 -4 8 -3 4 4 -4 7 9 10 38 8 52 -3 56 5 51 84 -2
29 0 48 6 45 5 -3 6 1 3 9 -3 9 -11 16 -18 16 -6 0 -4 4 4 10 8 5 11 12 7 16
-4 4 -2 13 3 20 8 8 6 17 -5 28 -9 9 -12 16 -7 16 6 0 9 21 8 48 -2 26 2 53 8
61 6 8 7 12 1 9 -6 -4 -10 13 -11 43 -1 26 3 46 8 43 13 -9 9 3 -8 20 -8 9
-11 16 -6 16 5 0 9 14 10 31 0 17 -1 29 -4 26 -3 -2 -21 -1 -40 3 -20 5 -34 4
-34 -1 0 -6 -9 -5 -20 1 -11 6 -20 7 -20 2 0 -5 -18 -6 -40 -2 -22 4 -40 4
-40 0z"/>
<path d="M6786 3598 c3 -20 0 -27 -8 -22 -7 5 -8 3 -2 -7 12 -20 12 -149 -1
-149 -5 0 -3 -4 5 -10 8 -5 11 -12 7 -16 -4 -4 -1 -14 6 -22 10 -13 9 -14 -2
-7 -11 6 -13 4 -8 -7 4 -12 0 -15 -19 -13 -13 1 -24 -2 -24 -7 0 -5 -8 -4 -19
1 -10 6 -21 8 -25 4 -3 -3 -39 -5 -79 -4 l-73 2 1 -95 c1 -65 -2 -93 -9 -89
-6 4 -5 0 2 -9 7 -9 10 -29 7 -49 -3 -19 -2 -28 1 -21 4 9 9 10 19 2 10 -8 15
-8 20 0 5 8 14 6 28 -7 11 -10 17 -12 13 -5 -9 15 10 17 19 2 5 -8 11 -8 19
-1 7 6 25 8 40 5 20 -3 26 -1 20 8 -5 10 -4 10 6 1 7 -6 19 -9 28 -6 11 5 13
3 7 -7 -6 -10 -4 -11 6 -4 8 5 21 9 29 9 8 0 21 4 29 9 10 6 12 5 7 -2 -5 -8
3 -11 26 -8 18 2 39 -1 47 -7 11 -9 13 -9 8 0 -4 6 -3 14 2 17 5 3 12 -1 15
-9 4 -12 10 -13 24 -6 13 7 23 6 32 -2 10 -10 11 -9 5 2 -6 11 -4 13 8 8 11
-4 17 -1 17 7 0 8 6 17 13 19 9 4 9 6 -1 6 -8 1 -10 6 -5 14 10 16 13 38 5 33
-6 -4 -7 18 -3 102 1 15 5 21 14 17 6 -4 3 1 -7 9 -11 9 -14 16 -7 16 7 0 9 5
5 12 -11 18 -11 88 1 88 5 0 3 5 -5 10 -11 7 -11 10 -2 10 7 0 10 5 7 11 -11
17 -11 89 0 89 6 0 3 5 -5 10 -11 7 -11 10 -2 10 10 0 10 5 1 21 -6 13 -7 19
-1 15 6 -3 9 2 7 11 -2 10 -4 22 -4 27 -1 4 -8 6 -16 2 -8 -3 -15 -1 -15 5 0
6 -6 7 -16 1 -9 -5 -32 -6 -50 -2 -20 5 -34 4 -34 -1 0 -6 -9 -5 -20 1 -11 6
-20 7 -20 2 0 -5 -17 -6 -38 -2 -38 7 -39 6 -36 -22z"/>
<path d="M6069 3343 c-3 -28 -4 -32 -11 -38 -4 -4 -3 -16 3 -26 6 -11 6 -19 0
-19 -5 0 -6 -14 -1 -35 4 -20 4 -38 -1 -41 -5 -3 -5 -13 1 -25 6 -10 7 -19 2
-19 -4 0 -6 -15 -4 -34 3 -25 8 -33 18 -29 8 3 22 -1 31 -8 10 -8 14 -9 10 -2
-4 6 -3 14 2 17 5 3 12 -2 15 -11 5 -12 10 -13 18 -5 8 8 17 8 31 1 12 -7 17
-7 13 -1 -3 5 1 13 10 16 9 4 13 2 8 -5 -4 -8 1 -9 16 -4 17 5 21 4 15 -5 -6
-9 -4 -11 6 -4 8 5 21 9 29 9 9 0 14 7 12 19 -2 10 1 15 6 12 11 -7 10 13 -1
31 -4 6 -3 14 1 17 5 3 6 26 2 50 -4 25 -3 51 1 58 4 7 3 18 -3 25 -7 9 -7 13
0 13 5 0 8 9 5 19 -5 21 -40 35 -49 20 -3 -6 -11 -5 -20 2 -11 9 -14 9 -14 -1
0 -9 -4 -9 -13 -2 -8 7 -18 7 -27 2 -9 -5 -19 -5 -27 2 -9 7 -13 7 -13 -1 0
-8 -5 -9 -19 -1 -14 7 -22 7 -27 -1 -4 -8 -9 -7 -15 2 -7 11 -9 11 -10 2z"/>
<path d="M4133 2885 c0 -8 4 -12 9 -9 5 3 6 10 3 15 -9 13 -12 11 -12 -6z"/>
<path d="M4133 2805 c0 -8 4 -12 9 -9 5 3 6 10 3 15 -9 13 -12 11 -12 -6z"/>
<path d="M5255 2811 c6 -11 4 -13 -8 -8 -10 4 -17 1 -17 -6 0 -8 -3 -9 -8 -1
-4 6 -16 11 -27 11 -11 0 -23 -5 -27 -11 -6 -8 -8 -7 -8 1 0 14 -39 14 -57 0
-9 -6 -13 -5 -13 3 0 8 -3 11 -6 8 -3 -4 -1 -16 6 -27 7 -15 7 -21 0 -21 -8 0
-8 -6 0 -20 10 -19 6 -25 -15 -20 -5 1 -1 -8 9 -19 11 -12 14 -21 7 -21 -8 0
-9 -5 -1 -19 12 -24 13 -34 2 -27 -5 3 -9 -1 -9 -9 0 -8 4 -12 9 -9 4 3 8 0 8
-5 0 -6 -3 -11 -7 -11 -5 0 -8 -31 -8 -69 0 -39 4 -67 9 -64 5 4 6 1 2 -6 -11
-18 -16 -92 -5 -85 5 3 9 0 9 -5 0 -6 -4 -11 -9 -11 -6 0 -6 -12 -1 -31 8 -28
8 -30 -8 -18 -12 10 -12 7 3 -11 11 -14 21 -26 21 -28 5 -8 41 -9 56 -1 12 7
20 4 28 -8 11 -17 11 -17 6 0 -3 11 0 17 10 17 8 0 13 -4 10 -8 -7 -12 38 -9
46 3 5 6 8 5 8 -2 0 -7 5 -13 11 -13 5 0 8 4 5 8 -2 4 6 8 19 8 13 0 21 -4 18
-10 -4 -5 1 -7 10 -3 9 3 19 1 23 -5 5 -7 12 -5 21 7 7 11 13 14 13 8 0 -7 24
-10 70 -8 48 1 67 -1 63 -9 -5 -8 -3 -8 8 0 8 6 35 10 62 8 26 -1 47 2 47 8 0
5 7 2 16 -6 17 -17 29 -21 20 -8 -3 5 17 9 43 8 30 -1 47 -5 43 -11 -3 -6 1
-5 9 1 8 6 35 10 62 8 26 -1 47 2 47 8 0 5 7 2 16 -6 17 -17 29 -21 20 -8 -3
5 17 9 43 8 30 -1 47 -5 43 -11 -3 -6 0 -6 9 1 16 12 48 12 66 1 7 -4 16 0 22
10 7 12 10 13 11 4 0 -8 7 -11 20 -8 11 3 23 0 27 -5 4 -7 11 -4 20 7 8 12 13
14 13 6 0 -8 8 -11 20 -8 11 3 23 0 27 -5 4 -7 11 -4 20 7 8 12 13 14 13 6 0
-8 8 -11 20 -8 11 3 23 0 27 -5 4 -7 11 -4 20 7 7 11 13 14 13 8 0 -6 19 -11
45 -10 25 0 45 5 45 9 0 5 7 2 16 -6 17 -17 29 -21 20 -8 -3 5 17 9 43 8 30
-1 47 -5 43 -11 -3 -6 1 -5 9 1 8 6 35 10 62 8 26 -1 47 2 47 8 0 5 7 2 16 -6
8 -9 21 -13 27 -9 7 4 20 6 31 4 13 -2 16 1 10 11 -6 10 -4 10 10 -1 16 -13
17 -11 13 38 -2 29 1 54 5 57 5 3 6 9 3 14 -5 7 -9 124 -5 145 5 27 1 116 -6
126 -4 8 -3 9 4 5 7 -4 12 -2 12 3 0 6 -3 11 -7 11 -5 0 -8 20 -8 44 0 24 3
42 7 40 14 -9 -2 41 -19 55 -16 15 -16 15 -2 -3 13 -18 13 -19 -8 -8 -15 8
-24 9 -28 1 -5 -7 -15 -4 -32 6 -14 10 -23 13 -19 7 3 -5 -1 -13 -10 -16 -12
-5 -15 -2 -10 10 5 13 3 14 -6 7 -7 -6 -23 -9 -36 -7 -17 3 -21 0 -16 -8 6
-10 5 -10 -7 -1 -8 6 -24 11 -34 9 -18 -3 -20 -11 -20 -92 0 -50 -4 -92 -10
-96 -6 -5 -5 -8 4 -8 7 0 11 -6 8 -14 -3 -7 0 -19 6 -26 9 -10 9 -11 0 -6 -8
5 -13 1 -13 -9 0 -10 -6 -15 -13 -12 -8 3 -20 1 -28 -3 -8 -5 -19 -4 -26 2 -9
7 -13 7 -13 -1 0 -9 -5 -9 -20 -1 -11 6 -20 7 -20 3 0 -4 -36 -6 -80 -3 -44 3
-80 1 -80 -3 0 -4 -9 -3 -20 3 -14 8 -20 8 -20 0 0 -6 -3 -9 -8 -6 -4 2 -37 5
-72 7 -79 2 -98 13 -73 42 10 11 12 17 6 13 -9 -5 -13 0 -13 14 0 13 4 19 11
14 8 -4 8 -1 1 12 -5 11 -9 49 -8 87 1 37 -2 67 -7 67 -4 0 -6 4 -3 9 3 5 -1
12 -10 15 -10 4 -13 2 -8 -6 5 -8 2 -9 -9 -5 -10 3 -17 2 -17 -4 0 -6 -7 -3
-16 5 -18 19 -28 21 -18 4 5 -8 2 -9 -9 -5 -10 4 -17 1 -17 -6 0 -9 -2 -9 -8
0 -4 7 -16 10 -27 9 -11 -2 -28 1 -39 6 -12 7 -16 7 -12 0 3 -6 2 -13 -4 -17
-5 -3 -10 -2 -10 3 0 5 -6 9 -14 9 -8 0 -14 -5 -13 -11 1 -6 -4 -10 -12 -8
-10 2 -12 -1 -5 -10 12 -15 12 -48 1 -65 -4 -6 -2 -15 4 -19 8 -5 9 -3 4 6 -5
9 -4 11 3 6 8 -5 9 -13 3 -25 -6 -10 -6 -23 -1 -31 6 -10 3 -21 -8 -34 -9 -11
-12 -16 -6 -13 7 4 14 -3 16 -18 3 -13 1 -22 -3 -19 -5 3 -9 -2 -9 -11 0 -11
-5 -15 -15 -11 -8 3 -15 1 -15 -5 0 -6 -7 -6 -20 1 -11 6 -20 7 -20 3 0 -4
-36 -6 -80 -3 -44 3 -80 1 -80 -4 0 -5 -6 -4 -13 2 -8 7 -18 7 -27 2 -9 -5
-19 -5 -27 2 -9 7 -13 7 -13 -1 0 -9 -5 -9 -20 -1 -11 6 -20 7 -20 3 0 -4 -28
-6 -62 -3 -65 5 -78 17 -54 49 8 11 8 13 -1 7 -8 -4 -13 -2 -13 8 0 8 6 17 13
19 10 4 10 6 0 6 -7 1 -13 6 -13 12 0 5 5 7 10 4 15 -9 12 2 -6 19 -8 9 -11
16 -6 16 6 0 9 21 8 48 -2 26 1 52 6 59 7 9 4 11 -11 8 -12 -2 -21 0 -21 5 0
4 -8 7 -17 5 -10 -1 -24 3 -32 9 -12 9 -13 8 -6 -3z"/>
<path d="M4133 2725 c0 -8 4 -12 9 -9 5 3 6 10 3 15 -9 13 -12 11 -12 -6z"/>
<path d="M6796 2727 c3 -10 9 -15 12 -12 3 3 0 11 -7 18 -10 9 -11 8 -5 -6z"/>
<path d="M4133 2645 c0 -8 4 -12 9 -9 5 3 6 10 3 15 -9 13 -12 11 -12 -6z"/>
<path d="M7380 2542 c0 -4 -16 -6 -35 -4 -48 6 -88 -5 -78 -21 11 -17 12 -67
2 -73 -5 -3 -9 -10 -9 -15 0 -6 4 -8 8 -5 4 2 8 -11 8 -30 0 -19 -5 -34 -11
-34 -5 0 -3 -5 5 -10 10 -6 11 -10 3 -10 -9 0 -10 -7 -3 -25 5 -14 7 -25 3
-25 -4 0 2 -6 12 -14 11 -8 26 -11 34 -8 10 4 12 1 6 -9 -7 -11 -6 -12 6 -3 8
6 51 10 101 9 48 -1 85 1 83 5 -2 4 0 21 5 38 5 20 5 34 -1 38 -6 4 -6 11 1
19 7 9 8 15 1 19 -7 4 -7 15 -1 31 6 15 6 27 -1 30 -5 4 -6 12 -2 18 10 16 10
48 0 70 -7 15 -11 16 -23 6 -10 -8 -14 -9 -14 0 0 8 -5 9 -18 2 -13 -7 -23 -6
-30 1 -9 9 -12 9 -12 0 0 -10 -5 -10 -20 -2 -11 6 -20 7 -20 2z"/>
<path d="M7255 2401 c-3 -5 -2 -12 3 -15 5 -3 9 1 9 9 0 17 -3 19 -12 6z"/>
<path d="M7257 2294 c-3 -3 -4 -11 -1 -18 2 -7 -4 -12 -15 -12 -11 0 -18 3
-15 7 5 9 -71 3 -87 -7 -7 -4 -9 -3 -6 3 4 7 -3 10 -18 9 -14 0 -25 -5 -25
-10 0 -5 -6 -3 -14 3 -10 9 -15 8 -20 -4 -3 -8 -13 -15 -23 -15 -15 0 -16 -2
-3 -10 11 -7 11 -10 2 -10 -7 0 -11 -4 -8 -8 12 -20 14 -62 3 -62 -7 0 -6 -4
3 -10 11 -7 11 -10 2 -10 -9 0 -10 -5 -3 -19 8 -15 7 -20 -5 -25 -14 -5 -14
-9 -3 -22 7 -9 13 -31 12 -50 0 -30 2 -33 15 -22 12 10 14 10 8 1 -4 -7 -3
-13 1 -13 5 0 15 6 22 13 8 6 11 7 8 1 -4 -7 6 -11 28 -11 20 0 32 4 28 10 -4
6 -1 7 8 1 22 -14 90 -14 82 0 -4 6 1 5 11 -3 13 -11 20 -11 28 -3 7 7 8 12 4
12 -5 0 -2 8 5 17 10 11 10 14 1 9 -8 -5 -11 -1 -8 16 2 13 -1 32 -7 43 -10
19 -9 19 8 5 15 -11 17 -12 10 -1 -13 22 -15 101 -2 101 8 0 9 3 2 8 -13 8
-13 22 -1 41 6 9 3 17 -8 23 -9 5 -14 13 -11 19 7 10 2 12 -8 3z m-210 -210
c-3 -3 -12 -4 -19 -1 -8 3 -5 6 6 6 11 1 17 -2 13 -5z"/>
</g>
</svg>
